<svg width="499" height="91" viewBox="0 0 499 91" fill="none" xmlns="http://www.w3.org/2000/svg">
<path d="M56.5 56.4861L45.94 27.6261C45.42 26.3461 44.88 24.8261 44.32 23.0661C43.76 21.3061 43.2 19.4061 42.64 17.3661C42.12 19.4061 41.58 21.3261 41.02 23.1261C40.46 24.8861 39.92 26.4261 39.4 27.7461L28.9 56.4861H56.5ZM85 89.2461H72.52C71.12 89.2461 69.98 88.9061 69.1 88.2261C68.22 87.5061 67.56 86.6261 67.12 85.5861L60.64 67.8861H24.7L18.22 85.5861C17.9 86.5061 17.28 87.3461 16.36 88.1061C15.44 88.8661 14.3 89.2461 12.94 89.2461H0.34L34.48 2.48612H50.92L85 89.2461ZM106.343 73.2861C108.023 75.3261 109.843 76.7661 111.803 77.6061C113.803 78.4461 115.903 78.8661 118.103 78.8661C120.383 78.8661 122.423 78.4661 124.223 77.6661C126.063 76.8261 127.623 75.5461 128.903 73.8261C130.183 72.0661 131.163 69.8461 131.843 67.1661C132.523 64.4461 132.863 61.2061 132.863 57.4461C132.863 50.6861 131.743 45.8061 129.503 42.8061C127.263 39.7661 124.043 38.2461 119.843 38.2461C117.003 38.2461 114.523 38.9061 112.403 40.2261C110.283 41.5061 108.263 43.3261 106.343 45.6861V73.2861ZM106.343 35.2461C108.823 32.6461 111.563 30.5861 114.563 29.0661C117.603 27.5061 121.063 26.7261 124.943 26.7261C128.503 26.7261 131.703 27.4261 134.543 28.8261C137.423 30.2261 139.863 32.2461 141.863 34.8861C143.903 37.4861 145.463 40.6461 146.543 44.3661C147.623 48.0861 148.163 52.2661 148.163 56.9061C148.163 61.9061 147.543 66.4461 146.303 70.5261C145.063 74.6061 143.283 78.1061 140.963 81.0261C138.683 83.9061 135.923 86.1461 132.683 87.7461C129.443 89.3461 125.843 90.1461 121.883 90.1461C119.963 90.1461 118.223 89.9461 116.663 89.5461C115.103 89.1861 113.663 88.6661 112.343 87.9861C111.023 87.3061 109.803 86.4861 108.683 85.5261C107.603 84.5261 106.563 83.4261 105.563 82.2261L104.903 86.3661C104.663 87.4061 104.243 88.1461 103.643 88.5861C103.083 89.0261 102.303 89.2461 101.303 89.2461H91.5231V0.0861206H106.343V35.2461ZM186.849 26.7261C191.409 26.7261 195.549 27.4661 199.269 28.9461C203.029 30.4261 206.229 32.5261 208.869 35.2461C211.549 37.9661 213.609 41.2861 215.049 45.2061C216.489 49.1261 217.209 53.5061 217.209 58.3461C217.209 63.2261 216.489 67.6261 215.049 71.5461C213.609 75.4661 211.549 78.8061 208.869 81.5661C206.229 84.3261 203.029 86.4461 199.269 87.9261C195.549 89.4061 191.409 90.1461 186.849 90.1461C182.249 90.1461 178.069 89.4061 174.309 87.9261C170.549 86.4461 167.329 84.3261 164.649 81.5661C162.009 78.8061 159.949 75.4661 158.469 71.5461C157.029 67.6261 156.309 63.2261 156.309 58.3461C156.309 53.5061 157.029 49.1261 158.469 45.2061C159.949 41.2861 162.009 37.9661 164.649 35.2461C167.329 32.5261 170.549 30.4261 174.309 28.9461C178.069 27.4661 182.249 26.7261 186.849 26.7261ZM186.849 78.7461C191.969 78.7461 195.749 77.0261 198.189 73.5861C200.669 70.1461 201.909 65.1061 201.909 58.4661C201.909 51.8261 200.669 46.7661 198.189 43.2861C195.749 39.8061 191.969 38.0661 186.849 38.0661C181.649 38.0661 177.789 39.8261 175.269 43.3461C172.789 46.8261 171.549 51.8661 171.549 58.4661C171.549 65.0661 172.789 70.1061 175.269 73.5861C177.789 77.0261 181.649 78.7461 186.849 78.7461ZM281.555 27.6861V89.2461H272.495C270.535 89.2461 269.295 88.3461 268.775 86.5461L267.755 81.6261C265.235 84.1861 262.455 86.2661 259.415 87.8661C256.375 89.4261 252.795 90.2061 248.675 90.2061C245.315 90.2061 242.335 89.6461 239.735 88.5261C237.175 87.3661 235.015 85.7461 233.255 83.6661C231.495 81.5861 230.155 79.1261 229.235 76.2861C228.355 73.4061 227.915 70.2461 227.915 66.8061V27.6861H242.735V66.8061C242.735 70.5661 243.595 73.4861 245.315 75.5661C247.075 77.6061 249.695 78.6261 253.175 78.6261C255.735 78.6261 258.135 78.0661 260.375 76.9461C262.615 75.7861 264.735 74.2061 266.735 72.2061V27.6861H281.555ZM316.77 90.2061C311.41 90.2061 307.29 88.7061 304.41 85.7061C301.57 82.6661 300.15 78.4861 300.15 73.1661V38.7861H293.85C293.05 38.7861 292.37 38.5261 291.81 38.0061C291.25 37.4861 290.97 36.7061 290.97 35.6661V29.7861L300.87 28.1661L303.99 11.3661C304.19 10.5661 304.57 9.94612 305.13 9.50612C305.69 9.06612 306.41 8.84612 307.29 8.84612H314.97V28.2261H331.41V38.7861H314.97V72.1461C314.97 74.0661 315.43 75.5661 316.35 76.6461C317.31 77.7261 318.61 78.2661 320.25 78.2661C321.17 78.2661 321.93 78.1661 322.53 77.9661C323.17 77.7261 323.71 77.4861 324.15 77.2461C324.63 77.0061 325.05 76.7861 325.41 76.5861C325.77 76.3461 326.13 76.2261 326.49 76.2261C326.93 76.2261 327.29 76.3461 327.57 76.5861C327.85 76.7861 328.15 77.1061 328.47 77.5461L332.91 84.7461C330.75 86.5461 328.27 87.9061 325.47 88.8261C322.67 89.7461 319.77 90.2061 316.77 90.2061ZM407.338 76.2261C410.458 76.2261 413.238 75.7061 415.678 74.6661C418.158 73.6261 420.238 72.1661 421.918 70.2861C423.598 68.4061 424.878 66.1261 425.758 63.4461C426.678 60.7661 427.138 57.7661 427.138 54.4461V2.48612H443.278V54.4461C443.278 59.6061 442.438 64.3861 440.758 68.7861C439.118 73.1461 436.738 76.9261 433.618 80.1261C430.538 83.2861 426.778 85.7661 422.338 87.5661C417.898 89.3261 412.898 90.2061 407.338 90.2061C401.738 90.2061 396.718 89.3261 392.278 87.5661C387.838 85.7661 384.058 83.2861 380.938 80.1261C377.858 76.9261 375.478 73.1461 373.798 68.7861C372.158 64.3861 371.338 59.6061 371.338 54.4461V2.48612H387.478V54.3861C387.478 57.7061 387.918 60.7061 388.798 63.3861C389.718 66.0661 391.018 68.3661 392.698 70.2861C394.418 72.1661 396.498 73.6261 398.938 74.6661C401.418 75.7061 404.218 76.2261 407.338 76.2261ZM494.122 39.6861C493.722 40.3261 493.302 40.7861 492.862 41.0661C492.422 41.3061 491.862 41.4261 491.182 41.4261C490.462 41.4261 489.682 41.2261 488.842 40.8261C488.042 40.4261 487.102 39.9861 486.022 39.5061C484.942 38.9861 483.702 38.5261 482.302 38.1261C480.942 37.7261 479.322 37.5261 477.442 37.5261C474.522 37.5261 472.222 38.1461 470.542 39.3861C468.902 40.6261 468.082 42.2461 468.082 44.2461C468.082 45.5661 468.502 46.6861 469.342 47.6061C470.222 48.4861 471.362 49.2661 472.762 49.9461C474.202 50.6261 475.822 51.2461 477.622 51.8061C479.422 52.3261 481.242 52.9061 483.082 53.5461C484.962 54.1861 486.802 54.9261 488.602 55.7661C490.402 56.5661 492.002 57.6061 493.402 58.8861C494.842 60.1261 495.982 61.6261 496.822 63.3861C497.702 65.1461 498.142 67.2661 498.142 69.7461C498.142 72.7061 497.602 75.4461 496.522 77.9661C495.482 80.4461 493.922 82.6061 491.842 84.4461C489.762 86.2461 487.182 87.6661 484.102 88.7061C481.062 89.7061 477.542 90.2061 473.542 90.2061C471.422 90.2061 469.342 90.0061 467.302 89.6061C465.302 89.2461 463.362 88.7261 461.482 88.0461C459.642 87.3661 457.922 86.5661 456.322 85.6461C454.762 84.7261 453.382 83.7261 452.182 82.6461L455.602 77.0061C456.042 76.3261 456.562 75.8061 457.162 75.4461C457.762 75.0861 458.522 74.9061 459.442 74.9061C460.362 74.9061 461.222 75.1661 462.022 75.6861C462.862 76.2061 463.822 76.7661 464.902 77.3661C465.982 77.9661 467.242 78.5261 468.682 79.0461C470.162 79.5661 472.022 79.8261 474.262 79.8261C476.022 79.8261 477.522 79.6261 478.762 79.2261C480.042 78.7861 481.082 78.2261 481.882 77.5461C482.722 76.8661 483.322 76.0861 483.682 75.2061C484.082 74.2861 484.282 73.3461 484.282 72.3861C484.282 70.9461 483.842 69.7661 482.962 68.8461C482.122 67.9261 480.982 67.1261 479.542 66.4461C478.142 65.7661 476.522 65.1661 474.682 64.6461C472.882 64.0861 471.022 63.4861 469.102 62.8461C467.222 62.2061 465.362 61.4661 463.522 60.6261C461.722 59.7461 460.102 58.6461 458.662 57.3261C457.262 56.0061 456.122 54.3861 455.242 52.4661C454.402 50.5461 453.982 48.2261 453.982 45.5061C453.982 42.9861 454.482 40.5861 455.482 38.3061C456.482 36.0261 457.942 34.0461 459.862 32.3661C461.822 30.6461 464.242 29.2861 467.122 28.2861C470.042 27.2461 473.402 26.7261 477.202 26.7261C481.442 26.7261 485.302 27.4261 488.782 28.8261C492.262 30.2261 495.162 32.0661 497.482 34.3461L494.122 39.6861Z" fill="black" fill-opacity="0.16"/>
</svg>
