<svg width="11" height="14" viewBox="0 0 11 14" fill="none" xmlns="http://www.w3.org/2000/svg">
<path d="M5.318 12.11C5.768 12.11 6.146 12.056 6.452 11.948C6.758 11.84 7.001 11.696 7.181 11.516C7.367 11.336 7.499 11.126 7.577 10.886C7.661 10.646 7.703 10.391 7.703 10.121C7.703 9.839 7.658 9.587 7.568 9.365C7.478 9.137 7.337 8.945 7.145 8.789C6.953 8.627 6.704 8.504 6.398 8.42C6.098 8.336 5.735 8.294 5.309 8.294H2.87V12.11H5.318ZM2.87 2.858V6.62H4.796C5.624 6.62 6.248 6.47 6.668 6.17C7.094 5.87 7.307 5.393 7.307 4.739C7.307 4.061 7.115 3.578 6.731 3.29C6.347 3.002 5.747 2.858 4.931 2.858H2.87ZM4.931 0.985999C5.783 0.985999 6.512 1.067 7.118 1.229C7.724 1.391 8.219 1.622 8.603 1.922C8.993 2.222 9.278 2.585 9.458 3.011C9.638 3.437 9.728 3.917 9.728 4.451C9.728 4.757 9.683 5.051 9.593 5.333C9.503 5.609 9.362 5.87 9.17 6.116C8.984 6.356 8.744 6.575 8.45 6.773C8.162 6.971 7.817 7.139 7.415 7.277C9.203 7.679 10.097 8.645 10.097 10.175C10.097 10.727 9.992 11.237 9.782 11.705C9.572 12.173 9.266 12.578 8.864 12.92C8.462 13.256 7.967 13.52 7.379 13.712C6.791 13.904 6.119 14 5.363 14H0.449V0.985999H4.931Z" fill="black"/>
</svg>
