<svg width="35" height="31" viewBox="0 0 35 31" fill="none" xmlns="http://www.w3.org/2000/svg">
<rect x="1" y="1" width="32.414" height="28.707" rx="3" stroke="white" stroke-width="2"/>
<path d="M9.414 13.707L8.707 14.414L8 13.707L8.707 13L9.414 13.707ZM26.414 21.707C26.414 21.9722 26.3086 22.2266 26.1211 22.4141C25.9336 22.6016 25.6792 22.707 25.414 22.707C25.1488 22.707 24.8944 22.6016 24.7069 22.4141C24.5194 22.2266 24.414 21.9722 24.414 21.707H26.414ZM13.707 19.414L8.707 14.414L10.121 13L15.121 18L13.707 19.414ZM8.707 13L13.707 8L15.121 9.414L10.121 14.414L8.707 13ZM9.414 12.707H19.414V14.707H9.414V12.707ZM26.414 19.707V21.707H24.414V19.707H26.414ZM19.414 12.707C21.2705 12.707 23.051 13.4445 24.3637 14.7573C25.6765 16.07 26.414 17.8505 26.414 19.707H24.414C24.414 18.3809 23.8872 17.1091 22.9495 16.1715C22.0119 15.2338 20.7401 14.707 19.414 14.707V12.707Z" fill="white"/>
</svg>
