<svg width="25" height="25" viewBox="0 0 25 25" fill="none" xmlns="http://www.w3.org/2000/svg">
<g clip-path="url(#clip0_785_5431)">
<path d="M3.30752 9.53999L4.30752 8.95332V11.1667H21.6409V8.97332L22.6275 9.53999C22.7799 9.61969 22.9571 9.63744 23.1223 9.58953C23.2874 9.54163 23.4277 9.43176 23.5137 9.2829C23.5998 9.13403 23.625 8.95767 23.5841 8.79066C23.5432 8.62365 23.4393 8.4789 23.2942 8.38666L12.9742 2.44666L2.64085 8.38666C2.56118 8.42833 2.49077 8.48569 2.43384 8.55529C2.37691 8.62489 2.33465 8.70528 2.3096 8.79163C2.28455 8.87798 2.27723 8.96851 2.28807 9.05777C2.29891 9.14702 2.32769 9.23316 2.37269 9.31101C2.41769 9.38885 2.47796 9.45679 2.5499 9.51073C2.62183 9.56468 2.70393 9.60351 2.79126 9.6249C2.87859 9.64629 2.96935 9.6498 3.05807 9.63521C3.14679 9.62061 3.23164 9.58822 3.30752 9.53999ZM12.8742 5.23999C12.9553 5.19318 13.0472 5.16854 13.1409 5.16854C13.2345 5.16854 13.3264 5.19318 13.4075 5.23999L17.8875 7.83332H15.7409L13.1409 6.33999L10.5409 7.83332H8.40085L12.8742 5.23999Z" fill="black"/>
<path d="M22.8743 18.5H22.3076V17.9333C22.3076 17.73 22.2268 17.535 22.0831 17.3912C21.9393 17.2474 21.7443 17.1666 21.541 17.1666H19.641V12.2533H16.9743V17.1666H14.3076V12.2533H11.641V17.1666H8.97428V12.2533H6.30762V17.1666H4.40762C4.20428 17.1666 4.00928 17.2474 3.8655 17.3912C3.72172 17.535 3.64095 17.73 3.64095 17.9333V18.5H3.07428C2.87095 18.5 2.67595 18.5807 2.53217 18.7245C2.38839 18.8683 2.30762 19.0633 2.30762 19.2666V21.1666H23.641V19.2666C23.641 19.0633 23.5602 18.8683 23.4164 18.7245C23.2726 18.5807 23.0776 18.5 22.8743 18.5Z" fill="black"/>
</g>
<defs>
<clipPath id="clip0_785_5431">
<rect width="24" height="24" fill="white" transform="translate(0.974609 0.5)"/>
</clipPath>
</defs>
</svg>
