<svg width="30" height="32" viewBox="0 0 30 32" fill="none" xmlns="http://www.w3.org/2000/svg">
<path d="M5.39961 12.8C5.39874 10.8054 6.01918 8.86 7.17473 7.2342C8.33029 5.6084 9.96356 4.3829 11.8476 3.728C11.7746 3.2709 11.8017 2.80341 11.927 2.35778C12.0522 1.91216 12.2727 1.49901 12.5731 1.14685C12.8735 0.794682 13.2467 0.511884 13.667 0.317964C14.0873 0.124045 14.5447 0.0236206 15.0076 0.0236206C15.4705 0.0236206 15.9279 0.124045 16.3482 0.317964C16.7685 0.511884 17.1417 0.794682 17.4422 1.14685C17.7426 1.49901 17.963 1.91216 18.0882 2.35778C18.2135 2.80341 18.2406 3.2709 18.1676 3.728C20.0487 4.38559 21.6785 5.61223 22.831 7.23781C23.9835 8.86338 24.6016 10.8073 24.5996 12.8V22.4L29.3996 25.6V27.2H0.599609V25.6L5.39961 22.4V12.8ZM18.1996 28.8C18.1996 29.6487 17.8625 30.4626 17.2624 31.0627C16.6622 31.6629 15.8483 32 14.9996 32C14.1509 32 13.337 31.6629 12.7369 31.0627C12.1368 30.4626 11.7996 29.6487 11.7996 28.8H18.1996Z" fill="black"/>
</svg>
