<svg width="30" height="26" viewBox="0 0 30 26" fill="none" xmlns="http://www.w3.org/2000/svg">
<path d="M0.5 3.25C0.5 2.38805 0.84241 1.5614 1.4519 0.951903C2.0614 0.34241 2.88805 0 3.75 0H25.25C26.112 0 26.9386 0.34241 27.5481 0.951903C28.1576 1.5614 28.5 2.38805 28.5 3.25V10.123L28.366 10.059L27.851 9.821C27.4266 9.62519 26.9672 9.51638 26.5 9.501V3.25C26.5 2.56 25.94 2 25.25 2H3.75C3.06 2 2.5 2.56 2.5 3.25V20.75C2.5 21.44 3.06 22 3.75 22H6.5V18.5C6.5 17.837 6.76339 17.2011 7.23223 16.7322C7.70107 16.2634 8.33696 16 9 16H20C20.3283 16 20.6534 16.0647 20.9567 16.1903C21.26 16.3159 21.5356 16.5001 21.7678 16.7322C21.9999 16.9644 22.1841 17.24 22.3097 17.5433C22.4353 17.8466 22.5 18.1717 22.5 18.5V19.248L21.793 19.063C21.2488 18.9208 20.6755 18.9354 20.1393 19.1053C19.6031 19.2752 19.126 19.5933 18.763 20.023L17.827 21.132C17.4954 21.5239 17.254 21.9841 17.1201 22.4797C16.9862 22.9753 16.9629 23.4944 17.052 24H3.75C3.3232 24 2.90059 23.9159 2.50628 23.7526C2.11197 23.5893 1.75369 23.3499 1.4519 23.0481C1.15011 22.7463 0.910719 22.388 0.747391 21.9937C0.584064 21.5994 0.5 21.1768 0.5 20.75V3.25ZM14.5 14C15.8261 14 17.0979 13.4732 18.0355 12.5355C18.9732 11.5979 19.5 10.3261 19.5 9C19.5 7.67392 18.9732 6.40215 18.0355 5.46447C17.0979 4.52678 15.8261 4 14.5 4C13.1739 4 11.9021 4.52678 10.9645 5.46447C10.0268 6.40215 9.5 7.67392 9.5 9C9.5 10.3261 10.0268 11.5979 10.9645 12.5355C11.9021 13.4732 13.1739 14 14.5 14ZM24.05 13.713L24.529 12.335C24.6181 12.0736 24.7612 11.8338 24.9489 11.6312C25.1367 11.4286 25.365 11.2678 25.6189 11.1592C25.8729 11.0505 26.1468 10.9965 26.423 11.0006C26.6992 11.0047 26.9714 11.0669 27.222 11.183L27.737 11.421C28.577 11.808 29.281 12.502 29.417 13.424C30.089 17.939 26.536 24.184 22.347 25.851C21.492 26.191 20.547 25.921 19.797 25.376L19.337 25.042C19.1123 24.8785 18.9236 24.6705 18.7825 24.4311C18.6414 24.1916 18.5511 23.9258 18.5169 23.6499C18.4828 23.3741 18.5057 23.0943 18.5841 22.8276C18.6626 22.561 18.7949 22.3134 18.973 22.1L19.91 20.99C20.278 20.554 20.86 20.37 21.413 20.514L23.434 21.044C24.962 20.0453 25.77 18.6253 25.858 16.784L24.395 15.272C24.1993 15.069 24.0636 14.8159 24.0027 14.5406C23.9418 14.2653 23.9582 13.9796 24.05 13.713Z" fill="#FBFBFE"/>
</svg>
