<svg width="80" height="80" viewBox="0 0 80 80" fill="none" xmlns="http://www.w3.org/2000/svg">
<circle cx="40" cy="40" r="38" fill="white" stroke="black" stroke-width="4"/>
<path d="M58 18H52V16C51.9968 14.9401 51.5744 13.9245 50.8249 13.1751C50.0755 12.4256 49.0599 12.0032 48 12H32C30.9401 12.0032 29.9245 12.4256 29.1751 13.1751C28.4256 13.9245 28.0032 14.9401 28 16V18H22C20.9401 18.0032 19.9245 18.4256 19.1751 19.1751C18.4256 19.9245 18.0032 20.9401 18 22V64C18.0032 65.0599 18.4256 66.0755 19.1751 66.8249C19.9245 67.5744 20.9401 67.9968 22 68H40V64H22V22H28V28H52V22H58V32H62V22C61.9968 20.9401 61.5744 19.9245 60.8249 19.1751C60.0755 18.4256 59.0599 18.0032 58 18ZM48 24H32V16H48V24Z" fill="black"/>
<path fill-rule="evenodd" clip-rule="evenodd" d="M54.3933 41.6383C53.6591 41.2381 52.8362 41.0283 52 41.0283C51.1638 41.0283 50.3409 41.2381 49.6067 41.6383L41.615 45.995C40.8265 46.4253 40.1685 47.06 39.7101 47.8325C39.2517 48.605 39.0098 49.4867 39.01 50.385V58.615C39.0098 59.5133 39.2517 60.395 39.7101 61.1675C40.1685 61.94 40.8265 62.5747 41.615 63.005L49.6067 67.3617C50.3409 67.7619 51.1638 67.9717 52 67.9717C52.8362 67.9717 53.6591 67.7619 54.3933 67.3617L62.3833 63.005C63.1722 62.575 63.8305 61.9403 64.2892 61.1678C64.7479 60.3953 64.99 59.5134 64.99 58.615V50.3833C64.99 49.4849 64.7479 48.6031 64.2892 47.8306C63.8305 47.058 63.1722 46.4234 62.3833 45.9933L54.3933 41.6383ZM52 49.5C51.5267 49.5 51.21 50.0667 50.5767 51.205L50.4133 51.4983C50.2333 51.8217 50.1433 51.9817 50.0033 52.0883C49.8617 52.195 49.6867 52.235 49.3367 52.3133L49.02 52.3867C47.79 52.665 47.175 52.8033 47.0283 53.2733C46.8817 53.7433 47.3017 54.235 48.14 55.215L48.3567 55.4683C48.595 55.7467 48.715 55.885 48.7683 56.0583C48.8217 56.2317 48.8033 56.4167 48.7683 56.7883L48.735 57.1267C48.6083 58.435 48.545 59.09 48.9267 59.38C49.31 59.67 49.8867 59.405 51.0383 58.875L51.335 58.7383C51.6633 58.5883 51.8267 58.5133 52 58.5133C52.1733 58.5133 52.3367 58.5883 52.665 58.7383L52.9617 58.875C54.1133 59.4067 54.69 59.67 55.0733 59.38C55.4567 59.09 55.3917 58.435 55.265 57.1267L55.2317 56.7883C55.1967 56.4167 55.1783 56.2317 55.2317 56.0583C55.285 55.885 55.405 55.7467 55.6433 55.4683L55.86 55.215C56.6983 54.235 57.1183 53.745 56.9717 53.2733C56.825 52.8033 56.21 52.665 54.98 52.3867L54.6633 52.3133C54.3133 52.235 54.1383 52.1967 53.9967 52.0883C53.8567 51.9817 53.7667 51.8217 53.5867 51.4983L53.4233 51.205C52.79 50.0683 52.4733 49.5 52 49.5Z" fill="black"/>
<path d="M50.3334 35.3334H53.6667C56.8101 35.3334 58.3801 35.3334 59.3567 36.31C60.3334 37.2867 60.3334 38.8567 60.3334 42V42.03L55.5901 39.4434C54.4888 38.843 53.2544 38.5283 52.0001 38.5283C50.7457 38.5283 49.5114 38.843 48.4101 39.4434L43.6667 42.03V42C43.6667 38.8567 43.6667 37.2867 44.6434 36.31C45.6201 35.3334 47.1901 35.3334 50.3334 35.3334Z" fill="black"/>
</svg>
