<svg width="80" height="80" viewBox="0 0 80 80" fill="none" xmlns="http://www.w3.org/2000/svg">
<circle cx="40" cy="40" r="38" fill="white" stroke="black" stroke-width="4"/>
<g clip-path="url(#clip0_49_2743)">
<path d="M68 48C68.004 45.9973 67.5068 44.0254 66.5536 42.2641C65.6003 40.5028 64.2215 39.0081 62.5426 37.9162C60.8637 36.8243 58.9383 36.1699 56.9418 36.0127C54.9453 35.8555 52.9411 36.2006 51.1121 37.0163C49.2831 37.8321 47.6873 39.0926 46.4702 40.683C45.2531 42.2735 44.4534 44.1433 44.1441 46.1219C43.8347 48.1006 44.0254 50.1252 44.6989 52.0113C45.3724 53.8973 46.5073 55.5848 48 56.92V72L56 68.212L64 72V56.92C65.2573 55.7987 66.2636 54.4245 66.953 52.8873C67.6423 51.3501 67.9991 49.6846 68 48ZM60 65.68L56 63.786L52 65.68V59.3C54.5853 60.2315 57.4147 60.2315 60 59.3V65.68ZM56 56C54.4177 56 52.871 55.5308 51.5554 54.6517C50.2398 53.7727 49.2144 52.5232 48.6089 51.0614C48.0034 49.5996 47.845 47.9911 48.1537 46.4392C48.4624 44.8874 49.2243 43.4619 50.3431 42.3431C51.4619 41.2243 52.8874 40.4624 54.4393 40.1537C55.9911 39.845 57.5996 40.0034 59.0614 40.6089C60.5233 41.2144 61.7727 42.2398 62.6517 43.5554C63.5308 44.871 64 46.4177 64 48C63.9973 50.1209 63.1536 52.1542 61.6539 53.6539C60.1542 55.1536 58.1209 55.9973 56 56Z" fill="black"/>
<path d="M58 18H52V16C51.9968 14.9401 51.5744 13.9245 50.8249 13.1751C50.0755 12.4256 49.0599 12.0032 48 12H32C30.9401 12.0032 29.9245 12.4256 29.1751 13.1751C28.4256 13.9245 28.0032 14.9401 28 16V18H22C20.9401 18.0032 19.9245 18.4256 19.1751 19.1751C18.4256 19.9245 18.0032 20.9401 18 22V64C18.0032 65.0599 18.4256 66.0755 19.1751 66.8249C19.9245 67.5744 20.9401 67.9968 22 68H40V64H22V22H28V28H52V22H58V32H62V22C61.9968 20.9401 61.5744 19.9245 60.8249 19.1751C60.0755 18.4256 59.0599 18.0032 58 18ZM48 24H32V16H48V24Z" fill="black"/>
</g>
<path opacity="0.3" fill-rule="evenodd" clip-rule="evenodd" d="M54.0982 36.8286C54.5027 36.4245 55.044 36.1868 55.6153 36.1623C56.1865 36.1377 56.7462 36.3282 57.1839 36.696L57.3302 36.8297L59.5016 39H62.5713C63.1478 39.0001 63.7029 39.218 64.1255 39.6101C64.5481 40.0022 64.8069 40.5394 64.8502 41.1143L64.857 41.2857V44.3554L67.0285 46.5269C67.4328 46.9315 67.6708 47.473 67.6953 48.0445C67.7198 48.616 67.5292 49.1759 67.161 49.6137L67.0273 49.7589L64.8559 51.9303V55C64.8561 55.5767 64.6383 56.1321 64.2462 56.5549C63.8541 56.9777 63.3166 57.2368 62.7416 57.28L62.5713 57.2857H59.5028L57.3313 59.4571C56.9267 59.8615 56.3852 60.0994 55.8137 60.124C55.2422 60.1485 54.6823 59.9579 54.2445 59.5897L54.0993 59.4571L51.9279 57.2857H48.857C48.2804 57.2859 47.725 57.0681 47.3021 56.676C46.8793 56.2839 46.6203 55.7465 46.577 55.1714L46.5713 55V51.9303L44.3999 49.7589C43.9955 49.3542 43.7576 48.8127 43.7331 48.2412C43.7085 47.6697 43.8992 47.1098 44.2673 46.672L44.3999 46.5269L46.5713 44.3554V41.2857C46.5714 40.7093 46.7893 40.1541 47.1814 39.7315C47.5735 39.3089 48.1108 39.0501 48.6856 39.0069L48.857 39H51.9268L54.0982 36.8286Z" fill="black"/>
<path fill-rule="evenodd" clip-rule="evenodd" d="M59.2331 44.6948L54.3828 49.5451L52.3622 47.5246C52.1478 47.3103 51.857 47.1899 51.5538 47.19C51.2507 47.1901 50.9599 47.3107 50.7457 47.5251C50.5314 47.7396 50.411 48.0304 50.4111 48.3335C50.4112 48.6367 50.5318 48.9274 50.7462 49.1417L53.4936 51.8891C53.6104 52.0059 53.749 52.0986 53.9016 52.1618C54.0541 52.225 54.2177 52.2575 54.3828 52.2575C54.5479 52.2575 54.7115 52.225 54.864 52.1618C55.0166 52.0986 55.1552 52.0059 55.2719 51.8891L60.8491 46.3108C61.0573 46.0953 61.1725 45.8066 61.1698 45.507C61.1672 45.2073 61.0471 44.9207 60.8352 44.7088C60.6233 44.4969 60.3366 44.3767 60.037 44.3741C59.7373 44.3715 59.4486 44.4867 59.2331 44.6948Z" fill="black"/>
<defs>
<clipPath id="clip0_49_2743">
<rect width="64" height="64" fill="white" transform="translate(8 8)"/>
</clipPath>
</defs>
</svg>
