<svg width="80" height="80" viewBox="0 0 80 80" fill="none" xmlns="http://www.w3.org/2000/svg">
<circle cx="40" cy="40" r="38" fill="white" stroke="black" stroke-width="4"/>
<path d="M57 16H51V14C50.9968 12.9401 50.5744 11.9245 49.8249 11.1751C49.0755 10.4256 48.0599 10.0032 47 10H31C29.9401 10.0032 28.9245 10.4256 28.1751 11.1751C27.4256 11.9245 27.0032 12.9401 27 14V16H21C19.9401 16.0032 18.9245 16.4256 18.1751 17.1751C17.4256 17.9245 17.0032 18.9401 17 20V62C17.0032 63.0599 17.4256 64.0755 18.1751 64.8249C18.9245 65.5744 19.9401 65.9968 21 66H39V62H21V20H27V26H51V20H57V30H61V20C60.9968 18.9401 60.5744 17.9245 59.8249 17.1751C59.0755 16.4256 58.0599 16.0032 57 16ZM47 22H31V14H47V22Z" fill="black"/>
<path d="M40.5239 66V63.3333L42.8731 60.6667V66H40.5239ZM45.2223 66V58L47.5715 55.3333V66H45.2223ZM49.9208 66V55.3333L52.27 58.0333V66H49.9208ZM54.6192 66V58.0333L56.9684 55.3667V66H54.6192ZM59.3176 66V52.6667L61.6668 50V66H59.3176ZM40.5239 59.1V55.3333L48.7461 46L53.4446 51.3333L61.6668 42V45.7667L53.4446 55.1L48.7461 49.7667L40.5239 59.1Z" fill="black"/>
<g clip-path="url(#clip0_49_2757)">
<path d="M58.9999 43.6667C62.6818 43.6667 65.6666 40.6819 65.6666 37C65.6666 33.3181 62.6818 30.3334 58.9999 30.3334C55.318 30.3334 52.3333 33.3181 52.3333 37C52.3333 40.6819 55.318 43.6667 58.9999 43.6667Z" stroke="black" stroke-width="2" stroke-linecap="round" stroke-linejoin="round"/>
<path d="M59 33V37L61.6667 38.3333" stroke="black" stroke-width="2" stroke-linecap="round" stroke-linejoin="round"/>
</g>
<defs>
<clipPath id="clip0_49_2757">
<rect width="16" height="16" fill="white" transform="translate(51 29)"/>
</clipPath>
</defs>
</svg>
