<svg width="27" height="24" viewBox="0 0 27 24" fill="none" xmlns="http://www.w3.org/2000/svg">
<path d="M13.5 0C6.16663 0 0.166626 4.77333 0.166626 10.6667C0.200288 12.0836 0.546393 13.4755 1.18022 14.7432C1.81406 16.0109 2.71998 17.1229 3.83329 18C3.83329 18.8 3.27329 20.8933 0.166626 24C3.32663 23.8533 6.35329 22.6667 8.79329 20.6667C10.3133 21.1067 11.9133 21.3333 13.5 21.3333C20.8333 21.3333 26.8333 16.56 26.8333 10.6667C26.8333 4.77333 20.8333 0 13.5 0ZM13.5 18.6667C7.60663 18.6667 2.83329 15.08 2.83329 10.6667C2.83329 6.25333 7.60663 2.66667 13.5 2.66667C19.3933 2.66667 24.1666 6.25333 24.1666 10.6667C24.1666 15.08 19.3933 18.6667 13.5 18.6667Z" fill="#FBFBFE"/>
</svg>
