<svg width="40" height="40" viewBox="0 0 40 40" fill="none" xmlns="http://www.w3.org/2000/svg">
<path d="M20.4668 32.05C21.6402 31.9667 22.7979 31.7795 23.9402 31.4884C25.3457 31.9096 26.8288 32.0054 28.2768 31.7684C28.3343 31.7609 28.3922 31.7565 28.4502 31.755C28.9668 31.755 29.6452 32.0517 30.6335 32.6767V31.65C30.6337 31.4712 30.682 31.2956 30.7731 31.1417C30.8643 30.9878 30.9951 30.8612 31.1518 30.775C31.5818 30.5367 31.9818 30.2584 32.3468 29.955C33.7868 28.75 34.6002 27.145 34.6002 25.445C34.5996 24.8829 34.5102 24.3243 34.3352 23.79C34.7685 22.99 35.1218 22.1467 35.3802 21.2734C36.2135 22.5067 36.6635 23.9567 36.6668 25.445C36.6668 27.755 35.5768 29.9117 33.6918 31.4867C33.3765 31.749 33.0453 31.9917 32.7002 32.2134V34.6167C32.7002 35.4434 31.7335 35.9167 31.0518 35.4267C30.4069 34.9505 29.7395 34.5055 29.0518 34.0934C28.8541 33.9772 28.6486 33.8747 28.4368 33.7867C27.8702 33.8712 27.2935 33.9139 26.7068 33.915C24.3535 33.915 22.1785 33.2184 20.4668 32.05ZM8.0235 27.24C5.05016 24.7567 3.3335 21.3634 3.3335 17.7334C3.3335 10.31 10.4302 4.37671 19.0952 4.37671C27.7602 4.37671 34.8585 10.31 34.8585 17.7334C34.8585 25.1567 27.7602 31.0884 19.0952 31.0884C18.1207 31.0884 17.1607 31.0145 16.2152 30.8667C15.8068 30.9617 14.1752 31.9184 11.8235 33.6134C10.9735 34.2284 9.7635 33.635 9.7635 32.6V28.5C9.15423 28.1232 8.57274 27.7033 8.0235 27.2434M16.2735 28.34C16.3435 28.34 16.4157 28.3456 16.4902 28.3567C17.3511 28.4995 18.2224 28.5708 19.0952 28.57C26.4152 28.57 32.2735 23.6717 32.2735 17.7334C32.2735 11.795 26.4152 6.89838 19.0952 6.89838C11.7785 6.89838 5.91683 11.7967 5.91683 17.7334C5.91683 20.605 7.28516 23.3084 9.70516 25.3317C10.3163 25.8406 10.9807 26.2967 11.6985 26.7C12.1002 26.925 12.3485 27.3417 12.3485 27.7917V30.1567C14.2085 28.9234 15.4318 28.34 16.2718 28.34" fill="black"/>
<path d="M12.7083 19.9999C13.2609 19.9999 13.7908 19.7804 14.1815 19.3897C14.5722 18.999 14.7917 18.4691 14.7917 17.9166C14.7917 17.3641 14.5722 16.8341 14.1815 16.4434C13.7908 16.0527 13.2609 15.8333 12.7083 15.8333C12.1558 15.8333 11.6259 16.0527 11.2352 16.4434C10.8445 16.8341 10.625 17.3641 10.625 17.9166C10.625 18.4691 10.8445 18.999 11.2352 19.3897C11.6259 19.7804 12.1558 19.9999 12.7083 19.9999ZM19.4783 19.9999C20.0309 19.9999 20.5608 19.7804 20.9515 19.3897C21.3422 18.999 21.5617 18.4691 21.5617 17.9166C21.5617 17.3641 21.3422 16.8341 20.9515 16.4434C20.5608 16.0527 20.0309 15.8333 19.4783 15.8333C18.9258 15.8333 18.3959 16.0527 18.0052 16.4434C17.6145 16.8341 17.395 17.3641 17.395 17.9166C17.395 18.4691 17.6145 18.999 18.0052 19.3897C18.3959 19.7804 18.9258 19.9999 19.4783 19.9999ZM26.25 20.0016C26.8025 20.0016 27.3324 19.7821 27.7231 19.3914C28.1138 19.0007 28.3333 18.4708 28.3333 17.9183C28.3333 17.3657 28.1138 16.8358 27.7231 16.4451C27.3324 16.0544 26.8025 15.8349 26.25 15.8349C25.6975 15.8349 25.1676 16.0544 24.7769 16.4451C24.3862 16.8358 24.1667 17.3657 24.1667 17.9183C24.1667 18.4708 24.3862 19.0007 24.7769 19.3914C25.1676 19.7821 25.6975 20.0016 26.25 20.0016Z" fill="black"/>
</svg>
