<svg width="21" height="20" viewBox="0 0 21 20" fill="none" xmlns="http://www.w3.org/2000/svg">
<path d="M15.5 1.33989C17.0083 2.21075 18.2629 3.46042 19.1398 4.96519C20.0167 6.46997 20.4854 8.17766 20.4994 9.91923C20.5135 11.6608 20.0725 13.3758 19.22 14.8946C18.3676 16.4133 17.1332 17.6831 15.6392 18.5782C14.1452 19.4733 12.4434 19.9627 10.7021 19.998C8.96083 20.0332 7.24055 19.6131 5.71155 18.7791C4.18256 17.9452 2.89787 16.7264 1.98467 15.2434C1.07146 13.7604 0.561409 12.0646 0.505 10.3239L0.5 9.99989L0.505 9.67589C0.561003 7.94888 1.06355 6.26585 1.96364 4.79089C2.86373 3.31592 4.13065 2.09934 5.64089 1.25977C7.15113 0.420205 8.85315 -0.0137108 10.581 0.000330246C12.3089 0.0143713 14.0036 0.47589 15.5 1.33989ZM10.5 3.99989C10.2551 3.99992 10.0187 4.08985 9.83563 4.25261C9.65259 4.41537 9.53566 4.63964 9.507 4.88289L9.5 4.99989V9.99989L9.509 10.1309C9.5318 10.3044 9.59973 10.4689 9.706 10.6079L9.793 10.7079L12.793 13.7079L12.887 13.7899C13.0624 13.926 13.278 13.9998 13.5 13.9998C13.722 13.9998 13.9376 13.926 14.113 13.7899L14.207 13.7069L14.29 13.6129C14.4261 13.4375 14.4999 13.2219 14.4999 12.9999C14.4999 12.7779 14.4261 12.5623 14.29 12.3869L14.207 12.2929L11.5 9.58489V4.99989L11.493 4.88289C11.4643 4.63964 11.3474 4.41537 11.1644 4.25261C10.9813 4.08985 10.7449 3.99992 10.5 3.99989Z" fill="white"/>
</svg>
