<svg width="33" height="32" viewBox="0 0 33 32" fill="none" xmlns="http://www.w3.org/2000/svg">
<path d="M25.8337 5.33366H23.167V4.00033C23.167 3.6467 23.0265 3.30756 22.7765 3.05752C22.5264 2.80747 22.1873 2.66699 21.8337 2.66699C21.48 2.66699 21.1409 2.80747 20.8908 3.05752C20.6408 3.30756 20.5003 3.6467 20.5003 4.00033V5.33366H12.5003V4.00033C12.5003 3.6467 12.3598 3.30756 12.1098 3.05752C11.8598 2.80747 11.5206 2.66699 11.167 2.66699C10.8134 2.66699 10.4742 2.80747 10.2242 3.05752C9.97413 3.30756 9.83366 3.6467 9.83366 4.00033V5.33366H7.16699C6.10613 5.33366 5.08871 5.75509 4.33857 6.50523C3.58842 7.25538 3.16699 8.27279 3.16699 9.33366V25.3337C3.16699 26.3945 3.58842 27.4119 4.33857 28.1621C5.08871 28.9122 6.10613 29.3337 7.16699 29.3337H25.8337C26.8945 29.3337 27.9119 28.9122 28.6621 28.1621C29.4122 27.4119 29.8337 26.3945 29.8337 25.3337V9.33366C29.8337 8.27279 29.4122 7.25538 28.6621 6.50523C27.9119 5.75509 26.8945 5.33366 25.8337 5.33366ZM27.167 25.3337C27.167 25.6873 27.0265 26.0264 26.7765 26.2765C26.5264 26.5265 26.1873 26.667 25.8337 26.667H7.16699C6.81337 26.667 6.47423 26.5265 6.22418 26.2765C5.97413 26.0264 5.83366 25.6873 5.83366 25.3337V16.0003H27.167V25.3337ZM27.167 13.3337H5.83366V9.33366C5.83366 8.98004 5.97413 8.6409 6.22418 8.39085C6.47423 8.1408 6.81337 8.00033 7.16699 8.00033H9.83366V9.33366C9.83366 9.68728 9.97413 10.0264 10.2242 10.2765C10.4742 10.5265 10.8134 10.667 11.167 10.667C11.5206 10.667 11.8598 10.5265 12.1098 10.2765C12.3598 10.0264 12.5003 9.68728 12.5003 9.33366V8.00033H20.5003V9.33366C20.5003 9.68728 20.6408 10.0264 20.8908 10.2765C21.1409 10.5265 21.48 10.667 21.8337 10.667C22.1873 10.667 22.5264 10.5265 22.7765 10.2765C23.0265 10.0264 23.167 9.68728 23.167 9.33366V8.00033H25.8337C26.1873 8.00033 26.5264 8.1408 26.7765 8.39085C27.0265 8.6409 27.167 8.98004 27.167 9.33366V13.3337Z" fill="white"/>
</svg>
