<svg width="24" height="24" viewBox="0 0 24 24" fill="none" xmlns="http://www.w3.org/2000/svg">
<path fill-rule="evenodd" clip-rule="evenodd" d="M10.6992 20.852C10.8308 21.0802 11.0202 21.2698 11.2483 21.4016C11.4764 21.5334 11.7352 21.6028 11.9987 21.6028C12.2622 21.6028 12.521 21.5334 12.7491 21.4016C12.9772 21.2698 13.1666 21.0802 13.2982 20.852L21.9322 5.898C22.0638 5.66997 22.1332 5.41131 22.1332 5.14801C22.1332 4.88471 22.0639 4.62604 21.9322 4.39801C21.8006 4.16999 21.6112 3.98063 21.3832 3.84897C21.1552 3.71732 20.8965 3.64801 20.6332 3.648H3.3652C3.10189 3.64801 2.84323 3.71732 2.61521 3.84897C2.38719 3.98063 2.19783 4.16999 2.06619 4.39801C1.93454 4.62604 1.86523 4.88471 1.86523 5.14801C1.86524 5.41131 1.93455 5.66997 2.0662 5.898L10.7002 20.852H10.6992Z" fill="black"/>
</svg>
