<svg width="458" height="76" viewBox="0 0 458 76" fill="none" xmlns="http://www.w3.org/2000/svg">
<rect x="34" y="1" width="38" height="38" rx="15" fill="#1E1E1E" stroke="#D9D9D9" stroke-width="2"/>
<path d="M45 21.32L51.4 26.44L61 13" stroke="white" stroke-width="2" stroke-linecap="round" stroke-linejoin="round"/>
<path d="M5.8 64.61C6.36 64.61 6.85333 64.5433 7.28 64.41C7.71333 64.27 8.07333 64.0767 8.36 63.83C8.65333 63.5767 8.87333 63.2767 9.02 62.93C9.16667 62.5833 9.24 62.2 9.24 61.78C9.24 60.9267 8.96 60.2833 8.4 59.85C7.84 59.4167 7 59.2 5.88 59.2H3.76V64.61H5.8ZM12.42 72H10.7C10.3467 72 10.0867 71.8633 9.92 71.59L6.2 66.47C6.08667 66.31 5.96333 66.1967 5.83 66.13C5.70333 66.0567 5.50333 66.02 5.23 66.02H3.76V72H1.83V57.67H5.88C6.78667 57.67 7.57 57.7633 8.23 57.95C8.89 58.13 9.43333 58.3933 9.86 58.74C10.2933 59.0867 10.6133 59.5067 10.82 60C11.0267 60.4867 11.13 61.0333 11.13 61.64C11.13 62.1467 11.05 62.62 10.89 63.06C10.73 63.5 10.4967 63.8967 10.19 64.25C9.89 64.5967 9.52 64.8933 9.08 65.14C8.64667 65.3867 8.15333 65.5733 7.6 65.7C7.84667 65.84 8.06 66.0433 8.24 66.31L12.42 72ZM20.0845 65.83C20.0845 65.4167 20.0245 65.04 19.9045 64.7C19.7912 64.3533 19.6212 64.0567 19.3945 63.81C19.1745 63.5567 18.9045 63.3633 18.5845 63.23C18.2645 63.09 17.9012 63.02 17.4945 63.02C16.6412 63.02 15.9645 63.27 15.4645 63.77C14.9712 64.2633 14.6645 64.95 14.5445 65.83H20.0845ZM21.5245 70.58C21.3045 70.8467 21.0412 71.08 20.7345 71.28C20.4279 71.4733 20.0979 71.6333 19.7445 71.76C19.3979 71.8867 19.0379 71.98 18.6645 72.04C18.2912 72.1067 17.9212 72.14 17.5545 72.14C16.8545 72.14 16.2079 72.0233 15.6145 71.79C15.0279 71.55 14.5179 71.2033 14.0845 70.75C13.6579 70.29 13.3245 69.7233 13.0845 69.05C12.8445 68.3767 12.7245 67.6033 12.7245 66.73C12.7245 66.0233 12.8312 65.3633 13.0445 64.75C13.2645 64.1367 13.5779 63.6067 13.9845 63.16C14.3912 62.7067 14.8879 62.3533 15.4745 62.1C16.0612 61.84 16.7212 61.71 17.4545 61.71C18.0612 61.71 18.6212 61.8133 19.1345 62.02C19.6545 62.22 20.1012 62.5133 20.4745 62.9C20.8545 63.28 21.1512 63.7533 21.3645 64.32C21.5779 64.88 21.6845 65.52 21.6845 66.24C21.6845 66.52 21.6545 66.7067 21.5945 66.8C21.5345 66.8933 21.4212 66.94 21.2545 66.94H14.4845C14.5045 67.58 14.5912 68.1367 14.7445 68.61C14.9045 69.0833 15.1245 69.48 15.4045 69.8C15.6845 70.1133 16.0179 70.35 16.4045 70.51C16.7912 70.6633 17.2245 70.74 17.7045 70.74C18.1512 70.74 18.5345 70.69 18.8545 70.59C19.1812 70.4833 19.4612 70.37 19.6945 70.25C19.9279 70.13 20.1212 70.02 20.2745 69.92C20.4345 69.8133 20.5712 69.76 20.6845 69.76C20.8312 69.76 20.9445 69.8167 21.0245 69.93L21.5245 70.58ZM27.4009 67.05C27.7609 67.05 28.0776 67 28.3509 66.9C28.6243 66.8 28.8543 66.66 29.0409 66.48C29.2276 66.3 29.3676 66.0867 29.4609 65.84C29.5543 65.5867 29.6009 65.31 29.6009 65.01C29.6009 64.39 29.4109 63.8967 29.0309 63.53C28.6576 63.1633 28.1143 62.98 27.4009 62.98C26.6809 62.98 26.1309 63.1633 25.7509 63.53C25.3776 63.8967 25.1909 64.39 25.1909 65.01C25.1909 65.31 25.2376 65.5867 25.3309 65.84C25.4309 66.0867 25.5743 66.3 25.7609 66.48C25.9476 66.66 26.1776 66.8 26.4509 66.9C26.7243 67 27.0409 67.05 27.4009 67.05ZM30.6109 72.55C30.6109 72.3033 30.5409 72.1033 30.4009 71.95C30.2609 71.7967 30.0709 71.6767 29.8309 71.59C29.5976 71.5033 29.3243 71.4433 29.0109 71.41C28.6976 71.37 28.3643 71.34 28.0109 71.32C27.6643 71.3 27.3109 71.28 26.9509 71.26C26.5909 71.24 26.2443 71.2067 25.9109 71.16C25.5376 71.3333 25.2309 71.5533 24.9909 71.82C24.7576 72.08 24.6409 72.3867 24.6409 72.74C24.6409 72.9667 24.6976 73.1767 24.8109 73.37C24.9309 73.57 25.1109 73.74 25.3509 73.88C25.5909 74.0267 25.8909 74.14 26.2509 74.22C26.6176 74.3067 27.0476 74.35 27.5409 74.35C28.0209 74.35 28.4509 74.3067 28.8309 74.22C29.2109 74.1333 29.5309 74.01 29.7909 73.85C30.0576 73.69 30.2609 73.5 30.4009 73.28C30.5409 73.06 30.6109 72.8167 30.6109 72.55ZM32.4209 62.27V62.93C32.4209 63.15 32.2809 63.29 32.0009 63.35L30.8509 63.5C31.0776 63.94 31.1909 64.4267 31.1909 64.96C31.1909 65.4533 31.0943 65.9033 30.9009 66.31C30.7143 66.71 30.4543 67.0533 30.1209 67.34C29.7876 67.6267 29.3876 67.8467 28.9209 68C28.4543 68.1533 27.9476 68.23 27.4009 68.23C26.9276 68.23 26.4809 68.1733 26.0609 68.06C25.8476 68.1933 25.6843 68.3367 25.5709 68.49C25.4576 68.6367 25.4009 68.7867 25.4009 68.94C25.4009 69.18 25.4976 69.3633 25.6909 69.49C25.8909 69.61 26.1509 69.6967 26.4709 69.75C26.7909 69.8033 27.1543 69.8367 27.5609 69.85C27.9743 69.8633 28.3943 69.8867 28.8209 69.92C29.2543 69.9467 29.6743 69.9967 30.0809 70.07C30.4943 70.1433 30.8609 70.2633 31.1809 70.43C31.5009 70.5967 31.7576 70.8267 31.9509 71.12C32.1509 71.4133 32.2509 71.7933 32.2509 72.26C32.2509 72.6933 32.1409 73.1133 31.9209 73.52C31.7076 73.9267 31.3976 74.2867 30.9909 74.6C30.5843 74.92 30.0843 75.1733 29.4909 75.36C28.9043 75.5533 28.2409 75.65 27.5009 75.65C26.7609 75.65 26.1143 75.5767 25.5609 75.43C25.0076 75.2833 24.5476 75.0867 24.1809 74.84C23.8143 74.5933 23.5376 74.3067 23.3509 73.98C23.1709 73.66 23.0809 73.3233 23.0809 72.97C23.0809 72.47 23.2376 72.0467 23.5509 71.7C23.8643 71.3533 24.2943 71.0767 24.8409 70.87C24.5409 70.7367 24.3009 70.56 24.1209 70.34C23.9476 70.1133 23.8609 69.81 23.8609 69.43C23.8609 69.2833 23.8876 69.1333 23.9409 68.98C23.9943 68.82 24.0743 68.6633 24.1809 68.51C24.2943 68.35 24.4309 68.2 24.5909 68.06C24.7509 67.92 24.9376 67.7967 25.1509 67.69C24.6509 67.41 24.2609 67.04 23.9809 66.58C23.7009 66.1133 23.5609 65.5733 23.5609 64.96C23.5609 64.4667 23.6543 64.02 23.8409 63.62C24.0343 63.2133 24.3009 62.87 24.6409 62.59C24.9809 62.3033 25.3843 62.0833 25.8509 61.93C26.3243 61.7767 26.8409 61.7 27.4009 61.7C27.8409 61.7 28.2509 61.75 28.6309 61.85C29.0109 61.9433 29.3576 62.0833 29.6709 62.27H32.4209ZM36.1416 61.87V72H34.3616V61.87H36.1416ZM36.5216 58.69C36.5216 58.8633 36.4849 59.0267 36.4116 59.18C36.3449 59.3267 36.2516 59.46 36.1316 59.58C36.0182 59.6933 35.8816 59.7833 35.7216 59.85C35.5682 59.9167 35.4049 59.95 35.2316 59.95C35.0582 59.95 34.8949 59.9167 34.7416 59.85C34.5949 59.7833 34.4649 59.6933 34.3516 59.58C34.2382 59.46 34.1482 59.3267 34.0816 59.18C34.0149 59.0267 33.9816 58.8633 33.9816 58.69C33.9816 58.5167 34.0149 58.3533 34.0816 58.2C34.1482 58.04 34.2382 57.9033 34.3516 57.79C34.4649 57.67 34.5949 57.5767 34.7416 57.51C34.8949 57.4433 35.0582 57.41 35.2316 57.41C35.4049 57.41 35.5682 57.4433 35.7216 57.51C35.8816 57.5767 36.0182 57.67 36.1316 57.79C36.2516 57.9033 36.3449 58.04 36.4116 58.2C36.4849 58.3533 36.5216 58.5167 36.5216 58.69ZM44.9663 63.54C44.8863 63.6867 44.7629 63.76 44.5963 63.76C44.4963 63.76 44.3829 63.7233 44.2563 63.65C44.1296 63.5767 43.9729 63.4967 43.7863 63.41C43.6063 63.3167 43.3896 63.2333 43.1363 63.16C42.8829 63.08 42.5829 63.04 42.2363 63.04C41.9363 63.04 41.6663 63.08 41.4263 63.16C41.1863 63.2333 40.9796 63.3367 40.8063 63.47C40.6396 63.6033 40.5096 63.76 40.4163 63.94C40.3296 64.1133 40.2863 64.3033 40.2863 64.51C40.2863 64.77 40.3596 64.9867 40.5063 65.16C40.6596 65.3333 40.8596 65.4833 41.1063 65.61C41.3529 65.7367 41.6329 65.85 41.9463 65.95C42.2596 66.0433 42.5796 66.1467 42.9063 66.26C43.2396 66.3667 43.5629 66.4867 43.8763 66.62C44.1896 66.7533 44.4696 66.92 44.7163 67.12C44.9629 67.32 45.1596 67.5667 45.3063 67.86C45.4596 68.1467 45.5363 68.4933 45.5363 68.9C45.5363 69.3667 45.4529 69.8 45.2863 70.2C45.1196 70.5933 44.8729 70.9367 44.5463 71.23C44.2196 71.5167 43.8196 71.7433 43.3463 71.91C42.8729 72.0767 42.3263 72.16 41.7063 72.16C40.9996 72.16 40.3596 72.0467 39.7863 71.82C39.2129 71.5867 38.7263 71.29 38.3263 70.93L38.7463 70.25C38.7996 70.1633 38.8629 70.0967 38.9363 70.05C39.0096 70.0033 39.1029 69.98 39.2163 69.98C39.3363 69.98 39.4629 70.0267 39.5963 70.12C39.7296 70.2133 39.8896 70.3167 40.0763 70.43C40.2696 70.5433 40.5029 70.6467 40.7763 70.74C41.0496 70.8333 41.3896 70.88 41.7963 70.88C42.1429 70.88 42.4463 70.8367 42.7062 70.75C42.9663 70.6567 43.1829 70.5333 43.3563 70.38C43.5296 70.2267 43.6563 70.05 43.7363 69.85C43.8229 69.65 43.8663 69.4367 43.8663 69.21C43.8663 68.93 43.7896 68.7 43.6363 68.52C43.4896 68.3333 43.2929 68.1767 43.0463 68.05C42.7996 67.9167 42.5163 67.8033 42.1963 67.71C41.8829 67.61 41.5596 67.5067 41.2263 67.4C40.8996 67.2933 40.5763 67.1733 40.2563 67.04C39.9429 66.9 39.6629 66.7267 39.4163 66.52C39.1696 66.3133 38.9696 66.06 38.8163 65.76C38.6696 65.4533 38.5963 65.0833 38.5963 64.65C38.5963 64.2633 38.6763 63.8933 38.8363 63.54C38.9963 63.18 39.2296 62.8667 39.5363 62.6C39.8429 62.3267 40.2196 62.11 40.6663 61.95C41.1129 61.79 41.6229 61.71 42.1963 61.71C42.8629 61.71 43.4596 61.8167 43.9863 62.03C44.5196 62.2367 44.9796 62.5233 45.3663 62.89L44.9663 63.54ZM50.8286 72.16C50.0286 72.16 49.4119 71.9367 48.9786 71.49C48.5519 71.0433 48.3386 70.4 48.3386 69.56V63.36H47.1186C47.0119 63.36 46.9219 63.33 46.8486 63.27C46.7753 63.2033 46.7386 63.1033 46.7386 62.97V62.26L48.3986 62.05L48.8086 58.92C48.8286 58.82 48.8719 58.74 48.9386 58.68C49.0119 58.6133 49.1053 58.58 49.2186 58.58H50.1186V62.07H53.0486V63.36H50.1186V69.44C50.1186 69.8667 50.2219 70.1833 50.4286 70.39C50.6353 70.5967 50.9019 70.7 51.2286 70.7C51.4153 70.7 51.5753 70.6767 51.7086 70.63C51.8486 70.5767 51.9686 70.52 52.0686 70.46C52.1686 70.4 52.2519 70.3467 52.3186 70.3C52.3919 70.2467 52.4553 70.22 52.5086 70.22C52.6019 70.22 52.6853 70.2767 52.7586 70.39L53.2786 71.24C52.9719 71.5267 52.6019 71.7533 52.1686 71.92C51.7353 72.08 51.2886 72.16 50.8286 72.16ZM56.5766 63.9C56.8966 63.2067 57.2899 62.6667 57.7566 62.28C58.2232 61.8867 58.7932 61.69 59.4666 61.69C59.6799 61.69 59.8832 61.7133 60.0766 61.76C60.2766 61.8067 60.4532 61.88 60.6066 61.98L60.4766 63.31C60.4366 63.4767 60.3366 63.56 60.1766 63.56C60.0832 63.56 59.9466 63.54 59.7666 63.5C59.5866 63.46 59.3832 63.44 59.1566 63.44C58.8366 63.44 58.5499 63.4867 58.2966 63.58C58.0499 63.6733 57.8266 63.8133 57.6266 64C57.4332 64.18 57.2566 64.4067 57.0966 64.68C56.9432 64.9467 56.8032 65.2533 56.6766 65.6V72H54.8866V61.87H55.9066C56.0999 61.87 56.2332 61.9067 56.3066 61.98C56.3799 62.0533 56.4299 62.18 56.4566 62.36L56.5766 63.9ZM67.5055 67.44C66.6855 67.4667 65.9855 67.5333 65.4055 67.64C64.8321 67.74 64.3621 67.8733 63.9955 68.04C63.6355 68.2067 63.3721 68.4033 63.2055 68.63C63.0455 68.8567 62.9655 69.11 62.9655 69.39C62.9655 69.6567 63.0088 69.8867 63.0955 70.08C63.1821 70.2733 63.2988 70.4333 63.4455 70.56C63.5988 70.68 63.7755 70.77 63.9755 70.83C64.1821 70.8833 64.4021 70.91 64.6355 70.91C64.9488 70.91 65.2355 70.88 65.4955 70.82C65.7555 70.7533 65.9988 70.66 66.2255 70.54C66.4588 70.42 66.6788 70.2767 66.8855 70.11C67.0988 69.9433 67.3055 69.7533 67.5055 69.54V67.44ZM61.7555 63.3C62.3155 62.76 62.9188 62.3567 63.5655 62.09C64.2121 61.8233 64.9288 61.69 65.7155 61.69C66.2821 61.69 66.7855 61.7833 67.2255 61.97C67.6655 62.1567 68.0355 62.4167 68.3355 62.75C68.6355 63.0833 68.8621 63.4867 69.0155 63.96C69.1688 64.4333 69.2455 64.9533 69.2455 65.52V72H68.4555C68.2821 72 68.1488 71.9733 68.0555 71.92C67.9621 71.86 67.8888 71.7467 67.8355 71.58L67.6355 70.62C67.3688 70.8667 67.1088 71.0867 66.8555 71.28C66.6021 71.4667 66.3355 71.6267 66.0555 71.76C65.7755 71.8867 65.4755 71.9833 65.1555 72.05C64.8421 72.1233 64.4921 72.16 64.1055 72.16C63.7121 72.16 63.3421 72.1067 62.9955 72C62.6488 71.8867 62.3455 71.72 62.0855 71.5C61.8321 71.28 61.6288 71.0033 61.4755 70.67C61.3288 70.33 61.2555 69.93 61.2555 69.47C61.2555 69.07 61.3655 68.6867 61.5855 68.32C61.8055 67.9467 62.1621 67.6167 62.6555 67.33C63.1488 67.0433 63.7921 66.81 64.5855 66.63C65.3788 66.4433 66.3521 66.3367 67.5055 66.31V65.52C67.5055 64.7333 67.3355 64.14 66.9955 63.74C66.6555 63.3333 66.1588 63.13 65.5055 63.13C65.0655 63.13 64.6955 63.1867 64.3955 63.3C64.1021 63.4067 63.8455 63.53 63.6255 63.67C63.4121 63.8033 63.2255 63.9267 63.0655 64.04C62.9121 64.1467 62.7588 64.2 62.6055 64.2C62.4855 64.2 62.3821 64.17 62.2955 64.11C62.2088 64.0433 62.1355 63.9633 62.0755 63.87L61.7555 63.3ZM81.2202 72H79.4402V63.36H74.2202V69.44C74.2202 69.8667 74.3235 70.1833 74.5302 70.39C74.7368 70.5967 75.0035 70.7 75.3302 70.7C75.5168 70.7 75.6768 70.6767 75.8102 70.63C75.9502 70.5767 76.0702 70.52 76.1702 70.46C76.2702 70.4 76.3535 70.3467 76.4202 70.3C76.4935 70.2467 76.5568 70.22 76.6102 70.22C76.7035 70.22 76.7868 70.2767 76.8602 70.39L77.3802 71.24C77.0735 71.5267 76.7035 71.7533 76.2702 71.92C75.8368 72.08 75.3902 72.16 74.9302 72.16C74.1302 72.16 73.5135 71.9367 73.0802 71.49C72.6535 71.0433 72.4402 70.4 72.4402 69.56V63.36H71.2202C71.1135 63.36 71.0235 63.33 70.9502 63.27C70.8768 63.2033 70.8402 63.1033 70.8402 62.97V62.26L72.5002 62.04L72.9102 58.92C72.9302 58.82 72.9735 58.74 73.0402 58.68C73.1135 58.6133 73.2068 58.58 73.3202 58.58H74.2202V62.07H81.2202V72ZM81.6602 58.62C81.6602 58.7933 81.6235 58.9567 81.5502 59.11C81.4835 59.2567 81.3902 59.3867 81.2702 59.5C81.1568 59.6133 81.0235 59.7033 80.8702 59.77C80.7168 59.8367 80.5535 59.87 80.3802 59.87C80.2068 59.87 80.0435 59.8367 79.8902 59.77C79.7435 59.7033 79.6135 59.6133 79.5002 59.5C79.3868 59.3867 79.2968 59.2567 79.2302 59.11C79.1635 58.9567 79.1302 58.7933 79.1302 58.62C79.1302 58.4467 79.1635 58.2833 79.2302 58.13C79.2968 57.97 79.3868 57.8333 79.5002 57.72C79.6135 57.6 79.7435 57.5067 79.8902 57.44C80.0435 57.3733 80.2068 57.34 80.3802 57.34C80.5535 57.34 80.7168 57.3733 80.8702 57.44C81.0235 57.5067 81.1568 57.6 81.2702 57.72C81.3902 57.8333 81.4835 57.97 81.5502 58.13C81.6235 58.2833 81.6602 58.4467 81.6602 58.62ZM88.4144 61.71C89.1544 61.71 89.821 61.8333 90.4144 62.08C91.0077 62.3267 91.5144 62.6767 91.9344 63.13C92.3544 63.5833 92.6744 64.1333 92.8944 64.78C93.121 65.42 93.2344 66.1367 93.2344 66.93C93.2344 67.73 93.121 68.45 92.8944 69.09C92.6744 69.73 92.3544 70.2767 91.9344 70.73C91.5144 71.1833 91.0077 71.5333 90.4144 71.78C89.821 72.02 89.1544 72.14 88.4144 72.14C87.6677 72.14 86.9944 72.02 86.3944 71.78C85.801 71.5333 85.2944 71.1833 84.8744 70.73C84.4544 70.2767 84.131 69.73 83.9044 69.09C83.6844 68.45 83.5744 67.73 83.5744 66.93C83.5744 66.1367 83.6844 65.42 83.9044 64.78C84.131 64.1333 84.4544 63.5833 84.8744 63.13C85.2944 62.6767 85.801 62.3267 86.3944 62.08C86.9944 61.8333 87.6677 61.71 88.4144 61.71ZM88.4144 70.75C89.4144 70.75 90.161 70.4167 90.6544 69.75C91.1477 69.0767 91.3944 68.14 91.3944 66.94C91.3944 65.7333 91.1477 64.7933 90.6544 64.12C90.161 63.4467 89.4144 63.11 88.4144 63.11C87.9077 63.11 87.4644 63.1967 87.0844 63.37C86.711 63.5433 86.3977 63.7933 86.1444 64.12C85.8977 64.4467 85.711 64.85 85.5844 65.33C85.4644 65.8033 85.4044 66.34 85.4044 66.94C85.4044 68.14 85.651 69.0767 86.1444 69.75C86.6444 70.4167 87.401 70.75 88.4144 70.75ZM97.172 63.34C97.392 63.0933 97.6254 62.87 97.872 62.67C98.1187 62.47 98.3787 62.3 98.652 62.16C98.932 62.0133 99.2254 61.9033 99.532 61.83C99.8454 61.75 100.182 61.71 100.542 61.71C101.095 61.71 101.582 61.8033 102.002 61.99C102.429 62.17 102.782 62.43 103.062 62.77C103.349 63.1033 103.565 63.5067 103.712 63.98C103.859 64.4533 103.932 64.9767 103.932 65.55V72H102.142V65.55C102.142 64.7833 101.965 64.19 101.612 63.77C101.265 63.3433 100.735 63.13 100.022 63.13C99.4954 63.13 99.002 63.2567 98.542 63.51C98.0887 63.7633 97.6687 64.1067 97.282 64.54V72H95.492V61.87H96.562C96.8154 61.87 96.972 61.9933 97.032 62.24L97.172 63.34Z" fill="white"/>
<circle cx="132" cy="38" r="2" fill="#D9D9D9"/>
<circle cx="144" cy="38" r="2" fill="#D9D9D9"/>
<circle cx="156" cy="38" r="2" fill="#D9D9D9"/>
<circle cx="168" cy="38" r="2" fill="#D9D9D9"/>
<rect x="224.5" width="40" height="40" rx="16" fill="#D9D9D9"/>
<path d="M207.48 57.67L201.64 72H199.9L194.06 57.67H195.61C195.783 57.67 195.923 57.7133 196.03 57.8C196.137 57.8867 196.217 57.9967 196.27 58.13L200.31 68.24C200.397 68.4667 200.48 68.7133 200.56 68.98C200.647 69.2467 200.723 69.5267 200.79 69.82C200.857 69.5267 200.927 69.2467 201 68.98C201.073 68.7133 201.153 68.4667 201.24 68.24L205.27 58.13C205.31 58.0167 205.387 57.9133 205.5 57.82C205.62 57.72 205.763 57.67 205.93 57.67H207.48ZM214.221 65.83C214.221 65.4167 214.161 65.04 214.041 64.7C213.928 64.3533 213.758 64.0567 213.531 63.81C213.311 63.5567 213.041 63.3633 212.721 63.23C212.401 63.09 212.038 63.02 211.631 63.02C210.778 63.02 210.101 63.27 209.601 63.77C209.108 64.2633 208.801 64.95 208.681 65.83H214.221ZM215.661 70.58C215.441 70.8467 215.178 71.08 214.871 71.28C214.565 71.4733 214.235 71.6333 213.881 71.76C213.535 71.8867 213.175 71.98 212.801 72.04C212.428 72.1067 212.058 72.14 211.691 72.14C210.991 72.14 210.345 72.0233 209.751 71.79C209.165 71.55 208.655 71.2033 208.221 70.75C207.795 70.29 207.461 69.7233 207.221 69.05C206.981 68.3767 206.861 67.6033 206.861 66.73C206.861 66.0233 206.968 65.3633 207.181 64.75C207.401 64.1367 207.715 63.6067 208.121 63.16C208.528 62.7067 209.025 62.3533 209.611 62.1C210.198 61.84 210.858 61.71 211.591 61.71C212.198 61.71 212.758 61.8133 213.271 62.02C213.791 62.22 214.238 62.5133 214.611 62.9C214.991 63.28 215.288 63.7533 215.501 64.32C215.715 64.88 215.821 65.52 215.821 66.24C215.821 66.52 215.791 66.7067 215.731 66.8C215.671 66.8933 215.558 66.94 215.391 66.94H208.621C208.641 67.58 208.728 68.1367 208.881 68.61C209.041 69.0833 209.261 69.48 209.541 69.8C209.821 70.1133 210.155 70.35 210.541 70.51C210.928 70.6633 211.361 70.74 211.841 70.74C212.288 70.74 212.671 70.69 212.991 70.59C213.318 70.4833 213.598 70.37 213.831 70.25C214.065 70.13 214.258 70.02 214.411 69.92C214.571 69.8133 214.708 69.76 214.821 69.76C214.968 69.76 215.081 69.8167 215.161 69.93L215.661 70.58ZM219.698 63.9C220.018 63.2067 220.411 62.6667 220.878 62.28C221.344 61.8867 221.914 61.69 222.588 61.69C222.801 61.69 223.004 61.7133 223.198 61.76C223.398 61.8067 223.574 61.88 223.728 61.98L223.598 63.31C223.558 63.4767 223.458 63.56 223.298 63.56C223.204 63.56 223.068 63.54 222.888 63.5C222.708 63.46 222.504 63.44 222.278 63.44C221.958 63.44 221.671 63.4867 221.418 63.58C221.171 63.6733 220.948 63.8133 220.748 64C220.554 64.18 220.378 64.4067 220.218 64.68C220.064 64.9467 219.924 65.2533 219.798 65.6V72H218.008V61.87H219.028C219.221 61.87 219.354 61.9067 219.428 61.98C219.501 62.0533 219.551 62.18 219.578 62.36L219.698 63.9ZM227.173 61.87V72H225.393V61.87H227.173ZM227.553 58.69C227.553 58.8633 227.516 59.0267 227.443 59.18C227.376 59.3267 227.283 59.46 227.163 59.58C227.049 59.6933 226.913 59.7833 226.753 59.85C226.599 59.9167 226.436 59.95 226.263 59.95C226.089 59.95 225.926 59.9167 225.773 59.85C225.626 59.7833 225.496 59.6933 225.383 59.58C225.269 59.46 225.179 59.3267 225.113 59.18C225.046 59.0267 225.013 58.8633 225.013 58.69C225.013 58.5167 225.046 58.3533 225.113 58.2C225.179 58.04 225.269 57.9033 225.383 57.79C225.496 57.67 225.626 57.5767 225.773 57.51C225.926 57.4433 226.089 57.41 226.263 57.41C226.436 57.41 226.599 57.4433 226.753 57.51C226.913 57.5767 227.049 57.67 227.163 57.79C227.283 57.9033 227.376 58.04 227.443 58.2C227.516 58.3533 227.553 58.5167 227.553 58.69ZM230.778 72V63.39L229.658 63.26C229.511 63.2267 229.394 63.1767 229.308 63.11C229.221 63.0367 229.178 62.9333 229.178 62.8V62.07H230.778V61.51C230.778 60.89 230.874 60.3233 231.068 59.81C231.261 59.29 231.551 58.8433 231.938 58.47C232.324 58.0967 232.804 57.8067 233.378 57.6C233.958 57.3933 234.628 57.29 235.388 57.29C235.641 57.29 235.901 57.3067 236.168 57.34C236.434 57.3733 236.664 57.4233 236.858 57.49L236.788 58.42C236.781 58.4867 236.754 58.5333 236.708 58.56C236.668 58.5867 236.611 58.6033 236.538 58.61C236.464 58.6167 236.371 58.62 236.258 58.62C236.151 58.6133 236.028 58.61 235.888 58.61C234.701 58.61 233.841 58.8567 233.308 59.35C232.774 59.8367 232.508 60.5733 232.508 61.56V62.07H238.628V72H236.838V63.36H232.558V72H230.778ZM248.593 63.67C248.539 63.7433 248.486 63.8 248.433 63.84C248.379 63.88 248.306 63.9 248.213 63.9C248.113 63.9 248.003 63.86 247.883 63.78C247.763 63.6933 247.613 63.6 247.433 63.5C247.259 63.4 247.043 63.31 246.783 63.23C246.529 63.1433 246.216 63.1 245.843 63.1C245.343 63.1 244.903 63.19 244.523 63.37C244.143 63.5433 243.823 63.7967 243.563 64.13C243.309 64.4633 243.116 64.8667 242.983 65.34C242.856 65.8133 242.793 66.3433 242.793 66.93C242.793 67.5433 242.863 68.09 243.003 68.57C243.143 69.0433 243.339 69.4433 243.593 69.77C243.853 70.09 244.163 70.3367 244.523 70.51C244.889 70.6767 245.299 70.76 245.753 70.76C246.186 70.76 246.543 70.71 246.823 70.61C247.103 70.5033 247.333 70.3867 247.513 70.26C247.699 70.1333 247.853 70.02 247.973 69.92C248.099 69.8133 248.223 69.76 248.343 69.76C248.489 69.76 248.603 69.8167 248.683 69.93L249.183 70.58C248.963 70.8533 248.713 71.0867 248.433 71.28C248.153 71.4733 247.849 71.6367 247.523 71.77C247.203 71.8967 246.866 71.99 246.513 72.05C246.159 72.11 245.799 72.14 245.433 72.14C244.799 72.14 244.209 72.0233 243.663 71.79C243.123 71.5567 242.653 71.22 242.253 70.78C241.853 70.3333 241.539 69.7867 241.313 69.14C241.086 68.4933 240.973 67.7567 240.973 66.93C240.973 66.1767 241.076 65.48 241.283 64.84C241.496 64.2 241.803 63.65 242.203 63.19C242.609 62.7233 243.106 62.36 243.693 62.1C244.286 61.84 244.966 61.71 245.733 61.71C246.446 61.71 247.073 61.8267 247.613 62.06C248.159 62.2867 248.643 62.61 249.063 63.03L248.593 63.67ZM256.584 67.44C255.764 67.4667 255.064 67.5333 254.484 67.64C253.91 67.74 253.44 67.8733 253.074 68.04C252.714 68.2067 252.45 68.4033 252.284 68.63C252.124 68.8567 252.044 69.11 252.044 69.39C252.044 69.6567 252.087 69.8867 252.174 70.08C252.26 70.2733 252.377 70.4333 252.524 70.56C252.677 70.68 252.854 70.77 253.054 70.83C253.26 70.8833 253.48 70.91 253.714 70.91C254.027 70.91 254.314 70.88 254.574 70.82C254.834 70.7533 255.077 70.66 255.304 70.54C255.537 70.42 255.757 70.2767 255.964 70.11C256.177 69.9433 256.384 69.7533 256.584 69.54V67.44ZM250.834 63.3C251.394 62.76 251.997 62.3567 252.644 62.09C253.29 61.8233 254.007 61.69 254.794 61.69C255.36 61.69 255.864 61.7833 256.304 61.97C256.744 62.1567 257.114 62.4167 257.414 62.75C257.714 63.0833 257.94 63.4867 258.094 63.96C258.247 64.4333 258.324 64.9533 258.324 65.52V72H257.534C257.36 72 257.227 71.9733 257.134 71.92C257.04 71.86 256.967 71.7467 256.914 71.58L256.714 70.62C256.447 70.8667 256.187 71.0867 255.934 71.28C255.68 71.4667 255.414 71.6267 255.134 71.76C254.854 71.8867 254.554 71.9833 254.234 72.05C253.92 72.1233 253.57 72.16 253.184 72.16C252.79 72.16 252.42 72.1067 252.074 72C251.727 71.8867 251.424 71.72 251.164 71.5C250.91 71.28 250.707 71.0033 250.554 70.67C250.407 70.33 250.334 69.93 250.334 69.47C250.334 69.07 250.444 68.6867 250.664 68.32C250.884 67.9467 251.24 67.6167 251.734 67.33C252.227 67.0433 252.87 66.81 253.664 66.63C254.457 66.4433 255.43 66.3367 256.584 66.31V65.52C256.584 64.7333 256.414 64.14 256.074 63.74C255.734 63.3333 255.237 63.13 254.584 63.13C254.144 63.13 253.774 63.1867 253.474 63.3C253.18 63.4067 252.924 63.53 252.704 63.67C252.49 63.8033 252.304 63.9267 252.144 64.04C251.99 64.1467 251.837 64.2 251.684 64.2C251.564 64.2 251.46 64.17 251.374 64.11C251.287 64.0433 251.214 63.9633 251.154 63.87L250.834 63.3ZM270.298 72H268.518V63.36H263.298V69.44C263.298 69.8667 263.402 70.1833 263.608 70.39C263.815 70.5967 264.082 70.7 264.408 70.7C264.595 70.7 264.755 70.6767 264.888 70.63C265.028 70.5767 265.148 70.52 265.248 70.46C265.348 70.4 265.432 70.3467 265.498 70.3C265.572 70.2467 265.635 70.22 265.688 70.22C265.782 70.22 265.865 70.2767 265.938 70.39L266.458 71.24C266.152 71.5267 265.782 71.7533 265.348 71.92C264.915 72.08 264.468 72.16 264.008 72.16C263.208 72.16 262.592 71.9367 262.158 71.49C261.732 71.0433 261.518 70.4 261.518 69.56V63.36H260.298C260.192 63.36 260.102 63.33 260.028 63.27C259.955 63.2033 259.918 63.1033 259.918 62.97V62.26L261.578 62.04L261.988 58.92C262.008 58.82 262.052 58.74 262.118 58.68C262.192 58.6133 262.285 58.58 262.398 58.58H263.298V62.07H270.298V72ZM270.738 58.62C270.738 58.7933 270.702 58.9567 270.628 59.11C270.562 59.2567 270.468 59.3867 270.348 59.5C270.235 59.6133 270.102 59.7033 269.948 59.77C269.795 59.8367 269.632 59.87 269.458 59.87C269.285 59.87 269.122 59.8367 268.968 59.77C268.822 59.7033 268.692 59.6133 268.578 59.5C268.465 59.3867 268.375 59.2567 268.308 59.11C268.242 58.9567 268.208 58.7933 268.208 58.62C268.208 58.4467 268.242 58.2833 268.308 58.13C268.375 57.97 268.465 57.8333 268.578 57.72C268.692 57.6 268.822 57.5067 268.968 57.44C269.122 57.3733 269.285 57.34 269.458 57.34C269.632 57.34 269.795 57.3733 269.948 57.44C270.102 57.5067 270.235 57.6 270.348 57.72C270.468 57.8333 270.562 57.97 270.628 58.13C270.702 58.2833 270.738 58.4467 270.738 58.62ZM277.493 61.71C278.233 61.71 278.899 61.8333 279.493 62.08C280.086 62.3267 280.593 62.6767 281.013 63.13C281.433 63.5833 281.753 64.1333 281.973 64.78C282.199 65.42 282.313 66.1367 282.313 66.93C282.313 67.73 282.199 68.45 281.973 69.09C281.753 69.73 281.433 70.2767 281.013 70.73C280.593 71.1833 280.086 71.5333 279.493 71.78C278.899 72.02 278.233 72.14 277.493 72.14C276.746 72.14 276.073 72.02 275.473 71.78C274.879 71.5333 274.373 71.1833 273.953 70.73C273.533 70.2767 273.209 69.73 272.983 69.09C272.763 68.45 272.653 67.73 272.653 66.93C272.653 66.1367 272.763 65.42 272.983 64.78C273.209 64.1333 273.533 63.5833 273.953 63.13C274.373 62.6767 274.879 62.3267 275.473 62.08C276.073 61.8333 276.746 61.71 277.493 61.71ZM277.493 70.75C278.493 70.75 279.239 70.4167 279.733 69.75C280.226 69.0767 280.473 68.14 280.473 66.94C280.473 65.7333 280.226 64.7933 279.733 64.12C279.239 63.4467 278.493 63.11 277.493 63.11C276.986 63.11 276.543 63.1967 276.163 63.37C275.789 63.5433 275.476 63.7933 275.223 64.12C274.976 64.4467 274.789 64.85 274.663 65.33C274.543 65.8033 274.483 66.34 274.483 66.94C274.483 68.14 274.729 69.0767 275.223 69.75C275.723 70.4167 276.479 70.75 277.493 70.75ZM286.25 63.34C286.47 63.0933 286.703 62.87 286.95 62.67C287.197 62.47 287.457 62.3 287.73 62.16C288.01 62.0133 288.303 61.9033 288.61 61.83C288.923 61.75 289.26 61.71 289.62 61.71C290.173 61.71 290.66 61.8033 291.08 61.99C291.507 62.17 291.86 62.43 292.14 62.77C292.427 63.1033 292.643 63.5067 292.79 63.98C292.937 64.4533 293.01 64.9767 293.01 65.55V72H291.22V65.55C291.22 64.7833 291.043 64.19 290.69 63.77C290.343 63.3433 289.813 63.13 289.1 63.13C288.573 63.13 288.08 63.2567 287.62 63.51C287.167 63.7633 286.747 64.1067 286.36 64.54V72H284.57V61.87H285.64C285.893 61.87 286.05 61.9933 286.11 62.24L286.25 63.34Z" fill="white"/>
<circle cx="321" cy="38" r="2" fill="#D9D9D9"/>
<circle cx="333" cy="38" r="2" fill="#D9D9D9"/>
<circle cx="345" cy="38" r="2" fill="#D9D9D9"/>
<circle cx="357" cy="38" r="2" fill="#D9D9D9"/>
<rect x="400.5" width="40" height="40" rx="16" fill="#D9D9D9"/>
<path d="M386.77 72H384.83V57.67H386.77V72ZM402.855 64.84C402.855 65.9133 402.685 66.89 402.345 67.77C402.005 68.65 401.525 69.4033 400.905 70.03C400.285 70.6567 399.539 71.1433 398.665 71.49C397.799 71.83 396.839 72 395.785 72H390.435V57.67H395.785C396.839 57.67 397.799 57.8433 398.665 58.19C399.539 58.53 400.285 59.0167 400.905 59.65C401.525 60.2767 402.005 61.03 402.345 61.91C402.685 62.79 402.855 63.7667 402.855 64.84ZM400.865 64.84C400.865 63.96 400.745 63.1733 400.505 62.48C400.265 61.7867 399.925 61.2 399.485 60.72C399.045 60.24 398.512 59.8733 397.885 59.62C397.259 59.3667 396.559 59.24 395.785 59.24H392.375V70.43H395.785C396.559 70.43 397.259 70.3033 397.885 70.05C398.512 69.7967 399.045 69.4333 399.485 68.96C399.925 68.48 400.265 67.8933 400.505 67.2C400.745 66.5067 400.865 65.72 400.865 64.84ZM414.998 65.1C415.551 65.1 416.038 65.0267 416.458 64.88C416.884 64.7333 417.241 64.53 417.528 64.27C417.821 64.0033 418.041 63.6867 418.188 63.32C418.334 62.9533 418.408 62.55 418.408 62.11C418.408 61.1967 418.124 60.4833 417.558 59.97C416.998 59.4567 416.144 59.2 414.998 59.2H412.698V65.1H414.998ZM414.998 57.67C415.904 57.67 416.691 57.7767 417.358 57.99C418.031 58.1967 418.588 58.4933 419.028 58.88C419.468 59.2667 419.794 59.7333 420.007 60.28C420.228 60.8267 420.338 61.4367 420.338 62.11C420.338 62.7767 420.221 63.3867 419.988 63.94C419.754 64.4933 419.411 64.97 418.958 65.37C418.511 65.77 417.954 66.0833 417.288 66.31C416.628 66.53 415.864 66.64 414.998 66.64H412.698V72H410.768V57.67H414.998ZM423.854 63.9C424.174 63.2067 424.567 62.6667 425.034 62.28C425.501 61.8867 426.071 61.69 426.744 61.69C426.957 61.69 427.161 61.7133 427.354 61.76C427.554 61.8067 427.731 61.88 427.884 61.98L427.754 63.31C427.714 63.4767 427.614 63.56 427.454 63.56C427.361 63.56 427.224 63.54 427.044 63.5C426.864 63.46 426.661 63.44 426.434 63.44C426.114 63.44 425.827 63.4867 425.574 63.58C425.327 63.6733 425.104 63.8133 424.904 64C424.711 64.18 424.534 64.4067 424.374 64.68C424.221 64.9467 424.081 65.2533 423.954 65.6V72H422.164V61.87H423.184C423.377 61.87 423.511 61.9067 423.584 61.98C423.657 62.0533 423.707 62.18 423.734 62.36L423.854 63.9ZM433.309 61.71C434.049 61.71 434.716 61.8333 435.309 62.08C435.902 62.3267 436.409 62.6767 436.829 63.13C437.249 63.5833 437.569 64.1333 437.789 64.78C438.016 65.42 438.129 66.1367 438.129 66.93C438.129 67.73 438.016 68.45 437.789 69.09C437.569 69.73 437.249 70.2767 436.829 70.73C436.409 71.1833 435.902 71.5333 435.309 71.78C434.716 72.02 434.049 72.14 433.309 72.14C432.562 72.14 431.889 72.02 431.289 71.78C430.696 71.5333 430.189 71.1833 429.769 70.73C429.349 70.2767 429.026 69.73 428.799 69.09C428.579 68.45 428.469 67.73 428.469 66.93C428.469 66.1367 428.579 65.42 428.799 64.78C429.026 64.1333 429.349 63.5833 429.769 63.13C430.189 62.6767 430.696 62.3267 431.289 62.08C431.889 61.8333 432.562 61.71 433.309 61.71ZM433.309 70.75C434.309 70.75 435.056 70.4167 435.549 69.75C436.042 69.0767 436.289 68.14 436.289 66.94C436.289 65.7333 436.042 64.7933 435.549 64.12C435.056 63.4467 434.309 63.11 433.309 63.11C432.802 63.11 432.359 63.1967 431.979 63.37C431.606 63.5433 431.292 63.7933 431.039 64.12C430.792 64.4467 430.606 64.85 430.479 65.33C430.359 65.8033 430.299 66.34 430.299 66.94C430.299 68.14 430.546 69.0767 431.039 69.75C431.539 70.4167 432.296 70.75 433.309 70.75ZM444.657 61.71C445.397 61.71 446.063 61.8333 446.657 62.08C447.25 62.3267 447.757 62.6767 448.177 63.13C448.597 63.5833 448.917 64.1333 449.137 64.78C449.363 65.42 449.477 66.1367 449.477 66.93C449.477 67.73 449.363 68.45 449.137 69.09C448.917 69.73 448.597 70.2767 448.177 70.73C447.757 71.1833 447.25 71.5333 446.657 71.78C446.063 72.02 445.397 72.14 444.657 72.14C443.91 72.14 443.237 72.02 442.637 71.78C442.043 71.5333 441.537 71.1833 441.117 70.73C440.697 70.2767 440.373 69.73 440.147 69.09C439.927 68.45 439.817 67.73 439.817 66.93C439.817 66.1367 439.927 65.42 440.147 64.78C440.373 64.1333 440.697 63.5833 441.117 63.13C441.537 62.6767 442.043 62.3267 442.637 62.08C443.237 61.8333 443.91 61.71 444.657 61.71ZM444.657 70.75C445.657 70.75 446.403 70.4167 446.897 69.75C447.39 69.0767 447.637 68.14 447.637 66.94C447.637 65.7333 447.39 64.7933 446.897 64.12C446.403 63.4467 445.657 63.11 444.657 63.11C444.15 63.11 443.707 63.1967 443.327 63.37C442.953 63.5433 442.64 63.7933 442.387 64.12C442.14 64.4467 441.953 64.85 441.827 65.33C441.707 65.8033 441.647 66.34 441.647 66.94C441.647 68.14 441.893 69.0767 442.387 69.75C442.887 70.4167 443.643 70.75 444.657 70.75ZM452.179 72V63.39L451.059 63.26C450.919 63.2267 450.803 63.1767 450.709 63.11C450.623 63.0367 450.579 62.9333 450.579 62.8V62.07H452.179V61.09C452.179 60.51 452.259 59.9967 452.419 59.55C452.586 59.0967 452.819 58.7167 453.119 58.41C453.426 58.0967 453.793 57.86 454.219 57.7C454.646 57.54 455.126 57.46 455.659 57.46C456.113 57.46 456.529 57.5267 456.909 57.66L456.869 58.55C456.856 58.71 456.766 58.7967 456.599 58.81C456.439 58.8233 456.223 58.83 455.949 58.83C455.643 58.83 455.363 58.87 455.109 58.95C454.863 59.03 454.649 59.16 454.469 59.34C454.289 59.52 454.149 59.7567 454.049 60.05C453.956 60.3433 453.909 60.7067 453.909 61.14V62.07H456.829V63.36H453.969V72H452.179Z" fill="white"/>
</svg>
