<svg width="895" height="88" viewBox="0 0 895 88" fill="none" xmlns="http://www.w3.org/2000/svg">
<path opacity="0.1" d="M33.0334 15.56H10.9534L12.7134 13.72V33.32L10.9534 31.48H30.3934V41.32H10.9534L12.7134 39.48V67H0.713438V5.56H33.0334V15.56ZM39.1453 67V21H50.2653L50.9853 35.16H48.5853C49.7053 30.4133 51.3586 26.7333 53.5453 24.12C55.7853 21.4533 58.932 20.12 62.9853 20.12C63.3586 20.12 63.7053 20.12 64.0253 20.12C64.3986 20.12 64.772 20.1467 65.1453 20.2L63.8653 32.12C62.372 31.48 60.932 31.16 59.5453 31.16C57.892 31.16 56.3986 31.6667 55.0653 32.68C53.7853 33.64 52.772 35.08 52.0253 37C51.332 38.8667 50.9853 41.16 50.9853 43.88V67H39.1453ZM88.6597 68.36C84.4464 68.36 80.6864 67.4267 77.3797 65.56C74.073 63.64 71.4864 60.84 69.6197 57.16C67.753 53.48 66.8197 49 66.8197 43.72C66.8197 38.3867 67.753 33.9867 69.6197 30.52C71.5397 27.0533 74.0464 24.4667 77.1397 22.76C80.2864 21 83.673 20.12 87.2997 20.12C91.7797 20.12 95.3797 21.0533 98.0997 22.92C100.873 24.7867 102.873 27.5333 104.1 31.16C105.326 34.7333 105.94 39.08 105.94 44.2V47.64H73.4597L73.6197 39.08L94.0197 38.84C94.0197 37.24 93.8597 35.8533 93.5397 34.68C93.2197 33.4533 92.7664 32.44 92.1797 31.64C91.593 30.84 90.873 30.2533 90.0197 29.88C89.2197 29.4533 88.2864 29.24 87.2197 29.24C84.873 29.24 82.8997 30.4667 81.2997 32.92C79.6997 35.3733 78.8997 39.1067 78.8997 44.12C78.8997 48.9733 79.8864 52.6533 81.8597 55.16C83.8864 57.6133 86.4997 58.84 89.6997 58.84C91.673 58.84 93.6197 58.5467 95.5397 57.96C97.4597 57.3733 99.4864 56.4933 101.62 55.32L105.06 63.16C102.446 64.9733 99.7264 66.28 96.8997 67.08C94.1264 67.9333 91.3797 68.36 88.6597 68.36ZM131.695 20.12C134.682 20.12 137.642 20.4667 140.575 21.16C143.509 21.8 146.389 22.8133 149.215 24.2L149.135 87.48H137.295L136.975 55.16H141.215C139.989 59.6933 138.149 63.0267 135.695 65.16C133.242 67.2933 130.309 68.36 126.895 68.36C123.642 68.36 120.762 67.5067 118.255 65.8C115.749 64.04 113.775 61.5333 112.335 58.28C110.949 55.0267 110.255 51.1333 110.255 46.6C110.255 41 111.135 36.2267 112.895 32.28C114.709 28.3333 117.215 25.32 120.415 23.24C123.669 21.16 127.429 20.12 131.695 20.12ZM131.855 29.64C129.615 29.64 127.802 30.36 126.415 31.8C125.029 33.1867 123.989 35.16 123.295 37.72C122.655 40.2267 122.335 43.1333 122.335 46.44C122.335 49.0533 122.629 51.2933 123.215 53.16C123.855 55.0267 124.735 56.4667 125.855 57.48C126.975 58.4933 128.335 59 129.935 59C131.482 59 132.789 58.6 133.855 57.8C134.975 56.9467 135.829 55.6933 136.415 54.04C137.002 52.3333 137.295 50.2533 137.295 47.8L137.375 30.92C136.255 30.4933 135.269 30.1733 134.415 29.96C133.562 29.7467 132.709 29.64 131.855 29.64ZM187.298 57.88H188.338C186.684 61.4 184.471 63.9867 181.698 65.64C178.978 67.2933 176.338 68.12 173.778 68.12C169.244 68.12 165.698 66.76 163.138 64.04C160.631 61.32 159.378 57.4267 159.378 52.36V21.48H171.218V51C171.218 53.4533 171.698 55.4 172.658 56.84C173.671 58.28 175.164 59 177.138 59C178.844 59 180.311 58.44 181.538 57.32C182.764 56.2 183.698 54.5733 184.338 52.44C185.031 50.3067 185.378 47.72 185.378 44.68V21.48H197.218V54.92C197.218 56.4133 197.458 57.5067 197.938 58.2C198.418 58.84 199.244 59.16 200.418 59.16C200.631 59.16 200.844 59.16 201.058 59.16C201.271 59.16 201.484 59.1333 201.698 59.08L202.018 67.72C201.164 67.9333 200.284 68.0933 199.378 68.2C198.524 68.3067 197.724 68.36 196.978 68.36C194.098 68.36 191.751 67.56 189.938 65.96C188.178 64.3067 187.298 61.6133 187.298 57.88ZM227.332 68.36C223.118 68.36 219.358 67.4267 216.052 65.56C212.745 63.64 210.158 60.84 208.292 57.16C206.425 53.48 205.492 49 205.492 43.72C205.492 38.3867 206.425 33.9867 208.292 30.52C210.212 27.0533 212.718 24.4667 215.812 22.76C218.958 21 222.345 20.12 225.972 20.12C230.452 20.12 234.052 21.0533 236.772 22.92C239.545 24.7867 241.545 27.5333 242.772 31.16C243.998 34.7333 244.612 39.08 244.612 44.2V47.64H212.132L212.292 39.08L232.692 38.84C232.692 37.24 232.532 35.8533 232.212 34.68C231.892 33.4533 231.438 32.44 230.852 31.64C230.265 30.84 229.545 30.2533 228.692 29.88C227.892 29.4533 226.958 29.24 225.892 29.24C223.545 29.24 221.572 30.4667 219.972 32.92C218.372 35.3733 217.572 39.1067 217.572 44.12C217.572 48.9733 218.558 52.6533 220.532 55.16C222.558 57.6133 225.172 58.84 228.372 58.84C230.345 58.84 232.292 58.5467 234.212 57.96C236.132 57.3733 238.158 56.4933 240.292 55.32L243.732 63.16C241.118 64.9733 238.398 66.28 235.572 67.08C232.798 67.9333 230.052 68.36 227.332 68.36ZM276.847 67V37.32C276.847 34.9733 276.367 33.08 275.407 31.64C274.501 30.2 273.194 29.48 271.487 29.48C270.101 29.48 268.767 29.96 267.487 30.92C266.261 31.88 265.247 33.4 264.447 35.48C263.647 37.56 263.247 40.3333 263.247 43.8V67H251.407V21.48H262.767L263.247 35.16H259.567C260.794 30.1467 262.847 26.3867 265.727 23.88C268.661 21.3733 271.887 20.12 275.407 20.12C277.861 20.12 280.074 20.7333 282.047 21.96C284.074 23.1333 285.674 24.8933 286.847 27.24C288.074 29.5867 288.687 32.5467 288.687 36.12V67H276.847ZM314.429 68.36C310.429 68.36 307.309 67.1333 305.069 64.68C302.882 62.1733 301.789 58.36 301.789 53.24V9.16H313.629V52.28C313.629 54.4667 314.056 56.12 314.909 57.24C315.762 58.3067 316.882 58.84 318.269 58.84C318.962 58.84 319.709 58.7067 320.509 58.44C321.362 58.12 322.216 57.72 323.069 57.24L326.269 64.36C324.189 65.7467 322.136 66.76 320.109 67.4C318.136 68.04 316.242 68.36 314.429 68.36ZM296.029 30.12V21.48H322.989V30.12H296.029ZM331.489 54.92V0.999996H343.329V53.8C343.329 55.6133 343.622 56.8933 344.209 57.64C344.849 58.3867 345.756 58.76 346.929 58.76C347.516 58.76 348.209 58.7067 349.009 58.6C349.862 58.44 350.582 58.2533 351.169 58.04L351.329 67.16C349.996 67.5867 348.716 67.88 347.489 68.04C346.262 68.2533 345.089 68.36 343.969 68.36C339.969 68.36 336.876 67.24 334.689 65C332.556 62.76 331.489 59.4 331.489 54.92ZM394.472 21.48L376.952 71.48C375.246 76.44 373.059 80.2 370.392 82.76C367.726 85.32 364.446 86.6 360.552 86.6C358.952 86.6 357.246 86.36 355.432 85.88C353.619 85.4 351.646 84.7333 349.512 83.88L353.032 75.32C354.472 75.8533 355.752 76.2533 356.872 76.52C357.992 76.84 358.979 77 359.832 77C361.112 77 362.206 76.6533 363.112 75.96C364.019 75.32 364.846 74.2533 365.592 72.76C366.339 71.32 367.112 69.4267 367.912 67.08L351.832 21.48H363.752L375.592 59.08H371.992L382.952 21.48H394.472ZM412.768 67L431.328 5.56H445.888L463.968 67H451.648L442.208 32.6C441.888 31.4267 441.488 29.88 441.008 27.96C440.581 25.9867 440.101 23.9333 439.568 21.8C439.088 19.6133 438.608 17.5333 438.128 15.56C437.701 13.5867 437.328 12.0133 437.008 10.84H439.888C439.568 12.0667 439.168 13.6933 438.688 15.72C438.208 17.6933 437.674 19.8 437.088 22.04C436.554 24.2267 436.021 26.3333 435.488 28.36C435.008 30.3333 434.608 31.9333 434.288 33.16L424.768 67H412.768ZM425.408 54.6V45.48H450.208V54.6H425.408ZM480.831 68.36C478.218 68.36 475.524 67.9067 472.751 67C470.031 66.0933 467.524 64.7333 465.231 62.92L469.551 55.96C471.044 56.9733 472.751 57.7733 474.671 58.36C476.644 58.9467 478.484 59.24 480.191 59.24C481.898 59.24 483.311 58.8667 484.431 58.12C485.604 57.32 486.191 56.0667 486.191 54.36C486.191 53.08 485.711 52.04 484.751 51.24C483.844 50.44 482.644 49.72 481.151 49.08C479.711 48.3867 478.164 47.6933 476.511 47C474.911 46.2533 473.364 45.3467 471.871 44.28C470.431 43.16 469.231 41.7467 468.271 40.04C467.364 38.3333 466.911 36.1733 466.911 33.56C466.911 30.7333 467.684 28.3333 469.231 26.36C470.831 24.3333 472.884 22.7867 475.391 21.72C477.898 20.6533 480.511 20.12 483.231 20.12C486.218 20.12 489.098 20.7867 491.871 22.12C494.644 23.4 496.698 25.5333 498.031 28.52L490.591 32.92C489.898 31.5867 488.884 30.6 487.551 29.96C486.218 29.2667 484.911 28.92 483.631 28.92C482.778 28.92 481.951 29.1067 481.151 29.48C480.404 29.8 479.791 30.28 479.311 30.92C478.884 31.56 478.671 32.3867 478.671 33.4C478.671 34.5733 479.124 35.56 480.031 36.36C480.991 37.16 482.191 37.88 483.631 38.52C485.124 39.16 486.671 39.8533 488.271 40.6C489.924 41.3467 491.471 42.2533 492.911 43.32C494.404 44.3333 495.604 45.6667 496.511 47.32C497.471 48.92 497.951 50.9467 497.951 53.4C497.951 56.6533 497.151 59.4 495.551 61.64C493.951 63.8267 491.844 65.5067 489.231 66.68C486.671 67.8 483.871 68.36 480.831 68.36ZM517.866 67H506.026V0.999996H517.866V67ZM531.786 61L523.546 45.72H511.866V36.2L524.986 36.12L533.466 21.48H545.066L531.066 44.44V38.68L541.466 56.92C542.053 57.7733 542.613 58.3867 543.146 58.76C543.679 59.08 544.293 59.24 544.986 59.24C545.253 59.24 545.466 59.24 545.626 59.24C545.839 59.24 546.159 59.2133 546.586 59.16V67.8C545.839 68.0133 545.093 68.1467 544.346 68.2C543.599 68.3067 542.879 68.36 542.186 68.36C539.573 68.36 537.519 67.7467 536.026 66.52C534.533 65.24 533.119 63.4 531.786 61ZM594.217 68.36C588.457 68.36 583.71 67 579.977 64.28C576.243 61.5067 573.443 57.72 571.577 52.92C569.763 48.12 568.857 42.6533 568.857 36.52C568.857 31.9867 569.39 27.7733 570.457 23.88C571.523 19.9333 573.123 16.4933 575.257 13.56C577.39 10.6267 580.057 8.33333 583.257 6.68C586.457 5.02667 590.19 4.2 594.457 4.2C600.217 4.2 604.937 5.58666 608.617 8.36C612.35 11.1333 615.123 14.9467 616.937 19.8C618.75 24.6533 619.657 30.2 619.657 36.44C619.657 40.9733 619.123 45.1867 618.057 49.08C617.043 52.92 615.47 56.28 613.337 59.16C611.257 62.04 608.617 64.3067 605.417 65.96C602.27 67.56 598.537 68.36 594.217 68.36ZM618.217 79C614.59 80.2267 611.177 80.8667 607.977 80.92C604.83 80.9733 602.083 80.4133 599.737 79.24C597.443 78.12 595.71 76.36 594.537 73.96C593.363 71.56 592.937 68.52 593.257 64.84H604.217C604.11 66.3867 604.323 67.5867 604.857 68.44C605.443 69.3467 606.297 69.96 607.417 70.28C608.537 70.6 609.817 70.6533 611.257 70.44C612.75 70.28 614.35 69.9333 616.057 69.4L618.217 79ZM594.297 57.88C597.337 57.88 599.763 56.92 601.577 55C603.443 53.0267 604.803 50.4133 605.657 47.16C606.51 43.9067 606.937 40.36 606.937 36.52C606.937 32.4133 606.51 28.7333 605.657 25.48C604.857 22.1733 603.523 19.56 601.657 17.64C599.843 15.6667 597.443 14.68 594.457 14.68C591.417 14.68 588.963 15.6933 587.097 17.72C585.23 19.6933 583.843 22.3333 582.937 25.64C582.083 28.8933 581.657 32.4933 581.657 36.44C581.657 40.3867 582.083 43.9867 582.937 47.24C583.79 50.4933 585.123 53.08 586.937 55C588.803 56.92 591.257 57.88 594.297 57.88ZM654.876 57.88H655.916C654.263 61.4 652.049 63.9867 649.276 65.64C646.556 67.2933 643.916 68.12 641.356 68.12C636.823 68.12 633.276 66.76 630.716 64.04C628.209 61.32 626.956 57.4267 626.956 52.36V21.48H638.796V51C638.796 53.4533 639.276 55.4 640.236 56.84C641.249 58.28 642.743 59 644.716 59C646.423 59 647.889 58.44 649.116 57.32C650.343 56.2 651.276 54.5733 651.916 52.44C652.609 50.3067 652.956 47.72 652.956 44.68V21.48H664.796V54.92C664.796 56.4133 665.036 57.5067 665.516 58.2C665.996 58.84 666.823 59.16 667.996 59.16C668.209 59.16 668.423 59.16 668.636 59.16C668.849 59.16 669.063 59.1333 669.276 59.08L669.596 67.72C668.743 67.9333 667.863 68.0933 666.956 68.2C666.103 68.3067 665.303 68.36 664.556 68.36C661.676 68.36 659.329 67.56 657.516 65.96C655.756 64.3067 654.876 61.6133 654.876 57.88ZM694.91 68.36C690.696 68.36 686.936 67.4267 683.63 65.56C680.323 63.64 677.736 60.84 675.87 57.16C674.003 53.48 673.07 49 673.07 43.72C673.07 38.3867 674.003 33.9867 675.87 30.52C677.79 27.0533 680.296 24.4667 683.39 22.76C686.536 21 689.923 20.12 693.55 20.12C698.03 20.12 701.63 21.0533 704.35 22.92C707.123 24.7867 709.123 27.5333 710.35 31.16C711.576 34.7333 712.19 39.08 712.19 44.2V47.64H679.71L679.87 39.08L700.27 38.84C700.27 37.24 700.11 35.8533 699.79 34.68C699.47 33.4533 699.016 32.44 698.43 31.64C697.843 30.84 697.123 30.2533 696.27 29.88C695.47 29.4533 694.536 29.24 693.47 29.24C691.123 29.24 689.15 30.4667 687.55 32.92C685.95 35.3733 685.15 39.1067 685.15 44.12C685.15 48.9733 686.136 52.6533 688.11 55.16C690.136 57.6133 692.75 58.84 695.95 58.84C697.923 58.84 699.87 58.5467 701.79 57.96C703.71 57.3733 705.736 56.4933 707.87 55.32L711.31 63.16C708.696 64.9733 705.976 66.28 703.15 67.08C700.376 67.9333 697.63 68.36 694.91 68.36ZM731.065 68.36C728.452 68.36 725.759 67.9067 722.985 67C720.265 66.0933 717.759 64.7333 715.465 62.92L719.785 55.96C721.279 56.9733 722.985 57.7733 724.905 58.36C726.879 58.9467 728.719 59.24 730.425 59.24C732.132 59.24 733.545 58.8667 734.665 58.12C735.839 57.32 736.425 56.0667 736.425 54.36C736.425 53.08 735.945 52.04 734.985 51.24C734.079 50.44 732.879 49.72 731.385 49.08C729.945 48.3867 728.399 47.6933 726.745 47C725.145 46.2533 723.599 45.3467 722.105 44.28C720.665 43.16 719.465 41.7467 718.505 40.04C717.599 38.3333 717.145 36.1733 717.145 33.56C717.145 30.7333 717.919 28.3333 719.465 26.36C721.065 24.3333 723.119 22.7867 725.625 21.72C728.132 20.6533 730.745 20.12 733.465 20.12C736.452 20.12 739.332 20.7867 742.105 22.12C744.879 23.4 746.932 25.5333 748.265 28.52L740.825 32.92C740.132 31.5867 739.119 30.6 737.785 29.96C736.452 29.2667 735.145 28.92 733.865 28.92C733.012 28.92 732.185 29.1067 731.385 29.48C730.639 29.8 730.025 30.28 729.545 30.92C729.119 31.56 728.905 32.3867 728.905 33.4C728.905 34.5733 729.359 35.56 730.265 36.36C731.225 37.16 732.425 37.88 733.865 38.52C735.359 39.16 736.905 39.8533 738.505 40.6C740.159 41.3467 741.705 42.2533 743.145 43.32C744.639 44.3333 745.839 45.6667 746.745 47.32C747.705 48.92 748.185 50.9467 748.185 53.4C748.185 56.6533 747.385 59.4 745.785 61.64C744.185 63.8267 742.079 65.5067 739.465 66.68C736.905 67.8 734.105 68.36 731.065 68.36ZM771.46 68.36C767.46 68.36 764.34 67.1333 762.1 64.68C759.914 62.1733 758.82 58.36 758.82 53.24V9.16H770.66V52.28C770.66 54.4667 771.087 56.12 771.94 57.24C772.794 58.3067 773.914 58.84 775.3 58.84C775.994 58.84 776.74 58.7067 777.54 58.44C778.394 58.12 779.247 57.72 780.1 57.24L783.3 64.36C781.22 65.7467 779.167 66.76 777.14 67.4C775.167 68.04 773.274 68.36 771.46 68.36ZM753.06 30.12V21.48H780.02V30.12H753.06ZM788.52 67V21.48H800.36V67H788.52ZM794.44 16.2C792.52 16.2 790.814 15.5333 789.32 14.2C787.88 12.8667 787.16 10.8667 787.16 8.2C787.16 5.58666 787.907 3.64 789.4 2.36C790.894 1.08 792.6 0.439999 794.52 0.439999C796.44 0.439999 798.147 1.08 799.64 2.36C801.134 3.64 801.88 5.58666 801.88 8.2C801.88 10.8133 801.107 12.8133 799.56 14.2C798.067 15.5333 796.36 16.2 794.44 16.2ZM837.584 44.44C837.584 41.1333 837.237 38.3867 836.544 36.2C835.851 34.0133 834.864 32.3867 833.584 31.32C832.304 30.2 830.784 29.64 829.024 29.64C827.317 29.64 825.797 30.2 824.464 31.32C823.184 32.3867 822.171 34.0133 821.424 36.2C820.731 38.3333 820.384 41 820.384 44.2C820.384 47.4533 820.731 50.1733 821.424 52.36C822.117 54.4933 823.104 56.12 824.384 57.24C825.717 58.3067 827.237 58.84 828.944 58.84C830.704 58.84 832.224 58.3067 833.504 57.24C834.837 56.1733 835.851 54.5733 836.544 52.44C837.237 50.2533 837.584 47.5867 837.584 44.44ZM849.664 44.2C849.664 49.2667 848.837 53.6133 847.184 57.24C845.531 60.8667 843.131 63.64 839.984 65.56C836.837 67.4267 833.024 68.36 828.544 68.36C824.117 68.36 820.384 67.3733 817.344 65.4C814.357 63.3733 812.091 60.5733 810.544 57C809.051 53.4267 808.304 49.24 808.304 44.44C808.304 39.48 809.131 35.1867 810.784 31.56C812.437 27.88 814.837 25.0533 817.984 23.08C821.131 21.1067 824.917 20.12 829.344 20.12C833.824 20.12 837.557 21.1067 840.544 23.08C843.584 25.0533 845.851 27.8533 847.344 31.48C848.891 35.0533 849.664 39.2933 849.664 44.2ZM882.785 67V37.32C882.785 34.9733 882.305 33.08 881.345 31.64C880.438 30.2 879.131 29.48 877.425 29.48C876.038 29.48 874.705 29.96 873.425 30.92C872.198 31.88 871.185 33.4 870.385 35.48C869.585 37.56 869.185 40.3333 869.185 43.8V67H857.345V21.48H868.705L869.185 35.16H865.505C866.731 30.1467 868.785 26.3867 871.665 23.88C874.598 21.3733 877.825 20.12 881.345 20.12C883.798 20.12 886.011 20.7333 887.985 21.96C890.011 23.1333 891.611 24.8933 892.785 27.24C894.011 29.5867 894.625 32.5467 894.625 36.12V67H882.785Z" fill="black"/>
</svg>
