<svg width="554" height="91" viewBox="0 0 554 91" fill="none" xmlns="http://www.w3.org/2000/svg">
<path d="M77.18 45.7461V80.8461C72.78 84.0861 68.08 86.4661 63.08 87.9861C58.12 89.4661 52.8 90.2061 47.12 90.2061C40.04 90.2061 33.62 89.1061 27.86 86.9061C22.14 84.7061 17.24 81.6461 13.16 77.7261C9.12 73.8061 6 69.1261 3.8 63.6861C1.6 58.2461 0.5 52.3061 0.5 45.8661C0.5 39.3461 1.56 33.3661 3.68 27.9261C5.8 22.4861 8.8 17.8061 12.68 13.8861C16.6 9.96612 21.34 6.92612 26.9 4.76612C32.46 2.60612 38.7 1.52612 45.62 1.52612C49.14 1.52612 52.42 1.80612 55.46 2.36612C58.54 2.92612 61.38 3.70612 63.98 4.70612C66.62 5.66612 69.02 6.84612 71.18 8.24612C73.34 9.64612 75.32 11.1861 77.12 12.8661L72.5 20.1861C71.78 21.3461 70.84 22.0661 69.68 22.3461C68.52 22.5861 67.26 22.2861 65.9 21.4461C64.58 20.6861 63.26 19.9261 61.94 19.1661C60.62 18.4061 59.14 17.7461 57.5 17.1861C55.9 16.6261 54.08 16.1661 52.04 15.8061C50.04 15.4461 47.72 15.2661 45.08 15.2661C40.8 15.2661 36.92 15.9861 33.44 17.4261C30 18.8661 27.06 20.9261 24.62 23.6061C22.18 26.2861 20.3 29.5061 18.98 33.2661C17.66 37.0261 17 41.2261 17 45.8661C17 50.8261 17.7 55.2661 19.1 59.1861C20.54 63.0661 22.54 66.3661 25.1 69.0861C27.7 71.7661 30.82 73.8261 34.46 75.2661C38.1 76.6661 42.16 77.3661 46.64 77.3661C49.84 77.3661 52.7 77.0261 55.22 76.3461C57.74 75.6661 60.2 74.7461 62.6 73.5861V57.8661H51.68C50.64 57.8661 49.82 57.5861 49.22 57.0261C48.66 56.4261 48.38 55.7061 48.38 54.8661V45.7461H77.18ZM142.493 27.6861V89.2461H133.433C131.473 89.2461 130.233 88.3461 129.713 86.5461L128.693 81.6261C126.173 84.1861 123.393 86.2661 120.353 87.8661C117.313 89.4261 113.733 90.2061 109.613 90.2061C106.253 90.2061 103.273 89.6461 100.673 88.5261C98.1128 87.3661 95.9528 85.7461 94.1928 83.6661C92.4328 81.5861 91.0928 79.1261 90.1728 76.2861C89.2928 73.4061 88.8528 70.2461 88.8528 66.8061V27.6861H103.673V66.8061C103.673 70.5661 104.533 73.4861 106.253 75.5661C108.013 77.6061 110.633 78.6261 114.113 78.6261C116.673 78.6261 119.073 78.0661 121.313 76.9461C123.553 75.7861 125.673 74.2061 127.673 72.2061V27.6861H142.493ZM172.547 27.6861V89.2461H157.667V27.6861H172.547ZM174.587 9.74612C174.587 11.0261 174.327 12.2261 173.807 13.3461C173.287 14.4661 172.587 15.4461 171.707 16.2861C170.867 17.1261 169.867 17.8061 168.707 18.3261C167.547 18.8061 166.307 19.0461 164.987 19.0461C163.707 19.0461 162.487 18.8061 161.327 18.3261C160.207 17.8061 159.227 17.1261 158.387 16.2861C157.547 15.4461 156.867 14.4661 156.347 13.3461C155.867 12.2261 155.627 11.0261 155.627 9.74612C155.627 8.42612 155.867 7.18612 156.347 6.02612C156.867 4.86612 157.547 3.86612 158.387 3.02612C159.227 2.18612 160.207 1.52612 161.327 1.04612C162.487 0.526122 163.707 0.266122 164.987 0.266122C166.307 0.266122 167.547 0.526122 168.707 1.04612C169.867 1.52612 170.867 2.18612 171.707 3.02612C172.587 3.86612 173.287 4.86612 173.807 6.02612C174.327 7.18612 174.587 8.42612 174.587 9.74612ZM226.296 43.4061C224.616 41.3661 222.776 39.9261 220.776 39.0861C218.816 38.2461 216.696 37.8261 214.416 37.8261C212.176 37.8261 210.156 38.2461 208.356 39.0861C206.556 39.9261 205.016 41.2061 203.736 42.9261C202.456 44.6061 201.476 46.7661 200.796 49.4061C200.116 52.0061 199.776 55.0861 199.776 58.6461C199.776 62.2461 200.056 65.3061 200.616 67.8261C201.216 70.3061 202.056 72.3461 203.136 73.9461C204.216 75.5061 205.536 76.6461 207.096 77.3661C208.656 78.0461 210.396 78.3861 212.316 78.3861C215.396 78.3861 218.016 77.7461 220.176 76.4661C222.336 75.1861 224.376 73.3661 226.296 71.0061V43.4061ZM241.116 0.0861206V89.2461H232.056C230.096 89.2461 228.856 88.3461 228.336 86.5461L227.076 80.6061C224.596 83.4461 221.736 85.7461 218.496 87.5061C215.296 89.2661 211.556 90.1461 207.276 90.1461C203.916 90.1461 200.836 89.4461 198.036 88.0461C195.236 86.6461 192.816 84.6261 190.776 81.9861C188.776 79.3061 187.216 76.0061 186.096 72.0861C185.016 68.1661 184.476 63.6861 184.476 58.6461C184.476 54.0861 185.096 49.8461 186.336 45.9261C187.576 42.0061 189.356 38.6061 191.676 35.7261C193.996 32.8461 196.776 30.6061 200.016 29.0061C203.256 27.3661 206.896 26.5461 210.936 26.5461C214.376 26.5461 217.316 27.0861 219.756 28.1661C222.196 29.2461 224.376 30.7061 226.296 32.5461V0.0861206H241.116ZM295.402 51.3861C295.402 49.4661 295.122 47.6661 294.562 45.9861C294.042 44.2661 293.242 42.7661 292.162 41.4861C291.082 40.2061 289.702 39.2061 288.022 38.4861C286.382 37.7261 284.462 37.3461 282.262 37.3461C277.982 37.3461 274.602 38.5661 272.122 41.0061C269.682 43.4461 268.122 46.9061 267.442 51.3861H295.402ZM267.142 60.3261C267.382 63.4861 267.942 66.2261 268.822 68.5461C269.702 70.8261 270.862 72.7261 272.302 74.2461C273.742 75.7261 275.442 76.8461 277.402 77.6061C279.402 78.3261 281.602 78.6861 284.002 78.6861C286.402 78.6861 288.462 78.4061 290.182 77.8461C291.942 77.2861 293.462 76.6661 294.742 75.9861C296.062 75.3061 297.202 74.6861 298.162 74.1261C299.162 73.5661 300.122 73.2861 301.042 73.2861C302.282 73.2861 303.202 73.7461 303.802 74.6661L308.062 80.0661C306.422 81.9861 304.582 83.6061 302.542 84.9261C300.502 86.2061 298.362 87.2461 296.122 88.0461C293.922 88.8061 291.662 89.3461 289.342 89.6661C287.062 89.9861 284.842 90.1461 282.682 90.1461C278.402 90.1461 274.422 89.4461 270.742 88.0461C267.062 86.6061 263.862 84.5061 261.142 81.7461C258.422 78.9461 256.282 75.5061 254.722 71.4261C253.162 67.3061 252.382 62.5461 252.382 57.1461C252.382 52.9461 253.062 49.0061 254.422 45.3261C255.782 41.6061 257.722 38.3861 260.242 35.6661C262.802 32.9061 265.902 30.7261 269.542 29.1261C273.222 27.5261 277.362 26.7261 281.962 26.7261C285.842 26.7261 289.422 27.3461 292.702 28.5861C295.982 29.8261 298.802 31.6461 301.162 34.0461C303.522 36.4061 305.362 39.3261 306.682 42.8061C308.042 46.2461 308.722 50.1861 308.722 54.6261C308.722 56.8661 308.482 58.3861 308.002 59.1861C307.522 59.9461 306.602 60.3261 305.242 60.3261H267.142ZM334.843 0.0861206V89.2461H320.023V0.0861206H334.843ZM364.969 27.6861V89.2461H350.089V27.6861H364.969ZM367.009 9.74612C367.009 11.0261 366.749 12.2261 366.229 13.3461C365.709 14.4661 365.009 15.4461 364.129 16.2861C363.289 17.1261 362.289 17.8061 361.129 18.3261C359.969 18.8061 358.729 19.0461 357.409 19.0461C356.129 19.0461 354.909 18.8061 353.749 18.3261C352.629 17.8061 351.649 17.1261 350.809 16.2861C349.969 15.4461 349.289 14.4661 348.769 13.3461C348.289 12.2261 348.049 11.0261 348.049 9.74612C348.049 8.42612 348.289 7.18612 348.769 6.02612C349.289 4.86612 349.969 3.86612 350.809 3.02612C351.649 2.18612 352.629 1.52612 353.749 1.04612C354.909 0.526122 356.129 0.266122 357.409 0.266122C358.729 0.266122 359.969 0.526122 361.129 1.04612C362.289 1.52612 363.289 2.18612 364.129 3.02612C365.009 3.86612 365.709 4.86612 366.229 6.02612C366.749 7.18612 367.009 8.42612 367.009 9.74612ZM393.938 35.2461C395.178 34.0061 396.478 32.8661 397.838 31.8261C399.238 30.7461 400.698 29.8461 402.218 29.1261C403.778 28.3661 405.438 27.7861 407.198 27.3861C408.958 26.9461 410.878 26.7261 412.958 26.7261C416.318 26.7261 419.298 27.3061 421.898 28.4661C424.498 29.5861 426.658 31.1861 428.378 33.2661C430.138 35.3061 431.458 37.7661 432.338 40.6461C433.258 43.4861 433.718 46.6261 433.718 50.0661V89.2461H418.898V50.0661C418.898 46.3061 418.038 43.4061 416.318 41.3661C414.598 39.2861 411.978 38.2461 408.458 38.2461C405.898 38.2461 403.498 38.8261 401.258 39.9861C399.018 41.1461 396.898 42.7261 394.898 44.7261V89.2461H380.078V27.6861H389.138C391.058 27.6861 392.318 28.5861 392.918 30.3861L393.938 35.2461ZM487.472 51.3861C487.472 49.4661 487.192 47.6661 486.632 45.9861C486.112 44.2661 485.312 42.7661 484.232 41.4861C483.152 40.2061 481.772 39.2061 480.092 38.4861C478.452 37.7261 476.532 37.3461 474.332 37.3461C470.052 37.3461 466.672 38.5661 464.192 41.0061C461.752 43.4461 460.192 46.9061 459.512 51.3861H487.472ZM459.212 60.3261C459.452 63.4861 460.012 66.2261 460.892 68.5461C461.772 70.8261 462.932 72.7261 464.372 74.2461C465.812 75.7261 467.512 76.8461 469.472 77.6061C471.472 78.3261 473.672 78.6861 476.072 78.6861C478.472 78.6861 480.532 78.4061 482.252 77.8461C484.012 77.2861 485.532 76.6661 486.812 75.9861C488.132 75.3061 489.272 74.6861 490.232 74.1261C491.232 73.5661 492.192 73.2861 493.112 73.2861C494.352 73.2861 495.272 73.7461 495.872 74.6661L500.132 80.0661C498.492 81.9861 496.652 83.6061 494.612 84.9261C492.572 86.2061 490.432 87.2461 488.192 88.0461C485.992 88.8061 483.732 89.3461 481.412 89.6661C479.132 89.9861 476.912 90.1461 474.752 90.1461C470.472 90.1461 466.492 89.4461 462.812 88.0461C459.132 86.6061 455.932 84.5061 453.212 81.7461C450.492 78.9461 448.352 75.5061 446.792 71.4261C445.232 67.3061 444.452 62.5461 444.452 57.1461C444.452 52.9461 445.132 49.0061 446.492 45.3261C447.852 41.6061 449.792 38.3861 452.312 35.6661C454.872 32.9061 457.972 30.7261 461.612 29.1261C465.292 27.5261 469.432 26.7261 474.032 26.7261C477.912 26.7261 481.492 27.3461 484.772 28.5861C488.052 29.8261 490.872 31.6461 493.232 34.0461C495.592 36.4061 497.432 39.3261 498.752 42.8061C500.112 46.2461 500.792 50.1861 500.792 54.6261C500.792 56.8661 500.552 58.3861 500.072 59.1861C499.592 59.9461 498.672 60.3261 497.312 60.3261H459.212ZM549.474 39.6861C549.074 40.3261 548.654 40.7861 548.214 41.0661C547.774 41.3061 547.214 41.4261 546.534 41.4261C545.814 41.4261 545.034 41.2261 544.194 40.8261C543.394 40.4261 542.454 39.9861 541.374 39.5061C540.294 38.9861 539.054 38.5261 537.654 38.1261C536.294 37.7261 534.674 37.5261 532.794 37.5261C529.874 37.5261 527.574 38.1461 525.894 39.3861C524.254 40.6261 523.434 42.2461 523.434 44.2461C523.434 45.5661 523.854 46.6861 524.694 47.6061C525.574 48.4861 526.714 49.2661 528.114 49.9461C529.554 50.6261 531.174 51.2461 532.974 51.8061C534.774 52.3261 536.594 52.9061 538.434 53.5461C540.314 54.1861 542.154 54.9261 543.954 55.7661C545.754 56.5661 547.354 57.6061 548.754 58.8861C550.194 60.1261 551.334 61.6261 552.174 63.3861C553.054 65.1461 553.494 67.2661 553.494 69.7461C553.494 72.7061 552.954 75.4461 551.874 77.9661C550.834 80.4461 549.274 82.6061 547.194 84.4461C545.114 86.2461 542.534 87.6661 539.454 88.7061C536.414 89.7061 532.894 90.2061 528.894 90.2061C526.774 90.2061 524.694 90.0061 522.654 89.6061C520.654 89.2461 518.714 88.7261 516.834 88.0461C514.994 87.3661 513.274 86.5661 511.674 85.6461C510.114 84.7261 508.734 83.7261 507.534 82.6461L510.954 77.0061C511.394 76.3261 511.914 75.8061 512.514 75.4461C513.114 75.0861 513.874 74.9061 514.794 74.9061C515.714 74.9061 516.574 75.1661 517.374 75.6861C518.214 76.2061 519.174 76.7661 520.254 77.3661C521.334 77.9661 522.594 78.5261 524.034 79.0461C525.514 79.5661 527.374 79.8261 529.614 79.8261C531.374 79.8261 532.874 79.6261 534.114 79.2261C535.394 78.7861 536.434 78.2261 537.234 77.5461C538.074 76.8661 538.674 76.0861 539.034 75.2061C539.434 74.2861 539.634 73.3461 539.634 72.3861C539.634 70.9461 539.194 69.7661 538.314 68.8461C537.474 67.9261 536.334 67.1261 534.894 66.4461C533.494 65.7661 531.874 65.1661 530.034 64.6461C528.234 64.0861 526.374 63.4861 524.454 62.8461C522.574 62.2061 520.714 61.4661 518.874 60.6261C517.074 59.7461 515.454 58.6461 514.014 57.3261C512.614 56.0061 511.474 54.3861 510.594 52.4661C509.754 50.5461 509.334 48.2261 509.334 45.5061C509.334 42.9861 509.834 40.5861 510.834 38.3061C511.834 36.0261 513.294 34.0461 515.214 32.3661C517.174 30.6461 519.594 29.2861 522.474 28.2861C525.394 27.2461 528.754 26.7261 532.554 26.7261C536.794 26.7261 540.654 27.4261 544.134 28.8261C547.614 30.2261 550.514 32.0661 552.834 34.3461L549.474 39.6861Z" fill="black" fill-opacity="0.16"/>
</svg>
