<svg width="218" height="86" viewBox="0 0 218 86" fill="none" xmlns="http://www.w3.org/2000/svg">
<path d="M43.8896 30.5808C48.4859 34.6993 49.3331 37.1236 49.9984 41.7076C47.749 37.9799 46.3547 35.8865 42.3624 32.108L41.4897 32.5444H40.3988C30.8638 42.2016 24.5484 48.8398 19.6724 52.6163C25.7386 45.1237 30.733 39.9689 38.8716 31.2354V30.5808L39.308 29.2718C36.7746 27.941 35.2018 27.3034 32.3264 26.2174C33.747 25.6186 34.4635 25.1739 35.1627 23.5993C37.741 24.8826 39.152 25.6832 41.4897 27.5264H42.3624L43.2351 26.8719C44.4132 27.0646 44.7756 27.4655 44.7623 28.8355L43.8896 29.2718V30.5808Z" fill="black"/>
<path d="M69.1976 23.5993L37.5626 6.14551L5.49121 23.5993V61.125L37.5626 79.4515L69.1976 61.125M49.9984 41.7076C49.3331 37.1236 48.4859 34.6993 43.8896 30.5808V29.2718L44.7623 28.8355C44.7756 27.4655 44.4132 27.0646 43.2351 26.8719L42.3624 27.5264H41.4897C39.152 25.6832 37.741 24.8826 35.1627 23.5993C34.4635 25.1739 33.747 25.6186 32.3264 26.2174C35.2018 27.3034 36.7746 27.941 39.308 29.2718L38.8716 30.5808V31.2354C30.733 39.9689 25.7386 45.1237 19.6724 52.6163C24.5484 48.8398 30.8638 42.2016 40.3988 32.5444H41.4897L42.3624 32.108C46.3547 35.8865 47.749 37.9799 49.9984 41.7076Z" stroke="black" stroke-width="0.87269"/>
<path d="M72.6879 22.0719L37.5621 2L2 22.0719V63.3065L37.5621 83.1602L72.6879 63.3065" stroke="black" stroke-width="3.49076"/>
<path d="M71.8154 61.7793L76.1789 63.3065L73.5608 64.8337H73.3426L71.8154 61.7793Z" fill="black"/>
<path d="M72.0074 19.6719L74.8698 21.1991L71.8154 23.599L72.0074 19.6719Z" fill="black"/>
<path d="M72.0074 19.6719L74.8698 21.1991L71.8154 23.599L72.0074 19.6719Z" fill="black"/>
<path d="M17.4907 52.8341L15.0908 57.8521H62.6524V56.3249L59.8162 52.8341L54.7982 51.0887L53.7074 47.598L50.653 41.7073L44.5441 39.9619L39.308 41.7073L34.0718 47.598V50.4342L28.1812 51.0887L26.4358 48.6888L21.1997 51.0887L17.4907 52.8341Z" fill="black" stroke="black" stroke-width="0.436345"/>
<path d="M150.743 36.5168V39.4721H141.6V36.5168H150.743ZM160.41 47.0959C157.338 44.052 155.355 41.6224 154.434 39.9468C153.82 38.9136 153.596 38.1037 153.596 37.3776C153.596 36.2047 154.294 35.3949 155.691 35.3949C156.584 35.3949 157.31 35.7858 157.981 36.3723C158.511 35.7579 158.735 35.0039 158.735 34.0544C158.735 33.3842 158.623 32.7419 158.399 32.2113H152.675V29.0836H173.703V32.2113H171.134V46.4536H167.224V40.1423C166.47 40.2819 165.604 40.3657 164.711 40.3657C163.175 40.3657 161.499 40.0585 159.907 39.2208C159.489 39.5 159.014 39.7793 158.483 40.0027C159.768 41.5107 161.499 43.1304 163.286 44.7501L160.41 47.0959ZM164.711 37.2101C165.576 37.2101 166.414 37.1263 167.224 36.9308V32.2113H162.281C162.505 32.8815 162.616 33.5797 162.616 34.4733C162.616 35.4228 162.393 36.2327 162.03 36.9029C162.896 37.1263 163.705 37.2101 164.711 37.2101ZM179.352 32.2113V46.4536H175.442V32.2113H173.292V29.0836H181.921V32.2113H179.352ZM199.206 32.2113V46.4536H195.296V42.6836C194.067 43.3817 192.671 43.7169 190.912 43.7169C187.086 43.7169 184.154 41.8737 183.092 37.6848C187.449 36.9867 189.041 35.4507 189.041 33.3563C189.041 32.2392 188.566 31.5411 187.616 31.5411C186.862 31.5411 186.388 31.9879 186.388 32.714C186.388 33.3283 186.807 33.8031 187.616 34.1103L185.606 36.2047C183.679 35.4228 182.869 34.1661 182.869 32.6302C182.869 30.2844 184.6 28.8043 187.505 28.8043C190.884 28.8043 192.643 30.815 192.643 33.7193C192.643 36.2606 191.331 38.2154 188.119 39.2208C188.789 40.1702 189.739 40.6171 191.023 40.6171C192.671 40.6171 194.263 39.891 195.296 38.5505V32.2113H193.621V29.0836H201.775V32.2113H199.206ZM207.414 32.2113V46.4536H203.505V32.2113H201.354V29.0836H203.477C202.779 26.1234 201.689 24.5596 199.986 24.5596C198.673 24.5596 198.059 25.3415 198.059 26.5982C198.059 27.5197 198.394 28.4413 198.813 29.2791H195.015C194.484 28.162 194.177 27.0171 194.177 25.9559C194.177 23.2191 196.076 21.4318 199.344 21.4318C203.979 21.4318 205.962 24.5596 207.051 29.0836H209.983V32.2113H207.414Z" fill="black"/>
<line x1="67.8877" y1="49.5612" x2="139.448" y2="49.5612" stroke="black" stroke-width="0.87269"/>
<path d="M70.0693 46.5071V30.3623H72.9056L77.0509 39.3074H78.5781L82.7233 30.3623H85.1232V46.5071M90.7957 46.5071V39.3074M101.923 46.5071V39.3074M90.7957 39.3074V34.7258L94.5047 30.3623H101.923V39.3074M90.7957 39.3074H101.923M108.468 46.5071V39.3074M108.468 39.3074V30.3623H119.376L120.685 31.8895V37.9983L119.376 39.3074H117.195M108.468 39.3074H117.195M117.195 39.3074L120.249 42.7981V46.5071M137.921 34.0712V31.8895L136.176 30.3623H127.667L126.14 31.8895V42.7981L127.667 44.7617H136.612L137.921 43.4527V37.9983H132.685" stroke="black" stroke-width="3.49076"/>
<path d="M68.5794 52.2854H69.405L71.3462 57.0269H71.4132L73.3544 52.2854H74.18V57.9976H73.5329V53.6577H73.4771L71.6921 57.9976H71.0673L69.2823 53.6577H69.2265V57.9976H68.5794V52.2854ZM75.4776 57.9976V53.7134H76.1359V57.9976H75.4776ZM75.8123 52.9994C75.684 52.9994 75.5734 52.9557 75.4804 52.8683C75.3893 52.7809 75.3438 52.6759 75.3438 52.5532C75.3438 52.4304 75.3893 52.3254 75.4804 52.238C75.5734 52.1506 75.684 52.1069 75.8123 52.1069C75.9406 52.1069 76.0503 52.1506 76.1415 52.238C76.2344 52.3254 76.2809 52.4304 76.2809 52.5532C76.2809 52.6759 76.2344 52.7809 76.1415 52.8683C76.0503 52.9557 75.9406 52.9994 75.8123 52.9994ZM77.9997 55.4204V57.9976H77.3415V53.7134H77.9774V54.3828H78.0332C78.1336 54.1653 78.2861 53.9905 78.4906 53.8585C78.6951 53.7246 78.9592 53.6577 79.2827 53.6577C79.5728 53.6577 79.8266 53.7172 80.0442 53.8362C80.2617 53.9533 80.4309 54.1318 80.5518 54.3717C80.6726 54.6097 80.7331 54.9109 80.7331 55.2754V57.9976H80.0748V55.32C80.0748 54.9834 79.9874 54.7213 79.8127 54.5334C79.6379 54.3438 79.398 54.249 79.0931 54.249C78.8829 54.249 78.6951 54.2945 78.5297 54.3856C78.366 54.4767 78.2368 54.6097 78.142 54.7845C78.0471 54.9593 77.9997 55.1712 77.9997 55.4204ZM83.7321 58.0868C83.3193 58.0868 82.9632 57.9957 82.6639 57.8135C82.3663 57.6294 82.1367 57.3728 81.9749 57.0437C81.815 56.7127 81.7351 56.3278 81.7351 55.889C81.7351 55.4501 81.815 55.0634 81.9749 54.7287C82.1367 54.3921 82.3617 54.13 82.6499 53.9422C82.94 53.7525 83.2784 53.6577 83.6652 53.6577C83.8883 53.6577 84.1086 53.6948 84.3262 53.7692C84.5437 53.8436 84.7418 53.9645 84.9203 54.1318C85.0988 54.2973 85.241 54.5167 85.347 54.79C85.453 55.0634 85.506 55.3999 85.506 55.7997V56.0786H82.2036V55.5096H84.8366C84.8366 55.2679 84.7882 55.0522 84.6916 54.8626C84.5967 54.6729 84.461 54.5232 84.2843 54.4135C84.1096 54.3038 83.9032 54.249 83.6652 54.249C83.403 54.249 83.1761 54.314 82.9846 54.4442C82.7949 54.5725 82.649 54.7398 82.5467 54.9462C82.4444 55.1526 82.3933 55.3739 82.3933 55.6101V55.9894C82.3933 56.3129 82.4491 56.5872 82.5607 56.8122C82.6741 57.0353 82.8312 57.2054 83.032 57.3226C83.2328 57.4379 83.4662 57.4955 83.7321 57.4955C83.905 57.4955 84.0612 57.4713 84.2007 57.423C84.342 57.3728 84.4638 57.2984 84.566 57.1999C84.6683 57.0995 84.7473 56.9749 84.8031 56.8261L85.439 57.0046C85.3721 57.2203 85.2596 57.41 85.1016 57.5736C84.9435 57.7354 84.7483 57.8618 84.5158 57.9529C84.2834 58.0422 84.0222 58.0868 83.7321 58.0868ZM89.5419 54.6729L88.9506 54.8403C88.9134 54.7417 88.8585 54.6459 88.786 54.553C88.7154 54.4581 88.6187 54.38 88.4959 54.3187C88.3732 54.2573 88.2161 54.2266 88.0246 54.2266C87.7624 54.2266 87.5439 54.2871 87.3691 54.4079C87.1962 54.5269 87.1097 54.6785 87.1097 54.8626C87.1097 55.0262 87.1692 55.1554 87.2882 55.2503C87.4072 55.3451 87.5932 55.4241 87.8461 55.4873L88.482 55.6435C88.865 55.7365 89.1505 55.8787 89.3383 56.0703C89.5261 56.2599 89.62 56.5044 89.62 56.8038C89.62 57.0493 89.5493 57.2687 89.408 57.462C89.2685 57.6554 89.0733 57.8079 88.8223 57.9195C88.5712 58.031 88.2793 58.0868 87.9465 58.0868C87.5095 58.0868 87.1479 57.992 86.8615 57.8023C86.5752 57.6127 86.3939 57.3356 86.3176 56.9712L86.9424 56.815C87.0019 57.0455 87.1144 57.2185 87.2799 57.3337C87.4472 57.449 87.6657 57.5067 87.9353 57.5067C88.2421 57.5067 88.4857 57.4416 88.6661 57.3114C88.8483 57.1794 88.9394 57.0214 88.9394 56.8373C88.9394 56.6885 88.8873 56.5639 88.7832 56.4635C88.6791 56.3613 88.5192 56.285 88.3035 56.2348L87.5895 56.0675C87.1971 55.9745 86.9089 55.8304 86.7248 55.6352C86.5426 55.4381 86.4515 55.1917 86.4515 54.896C86.4515 54.6543 86.5194 54.4405 86.6551 54.2545C86.7927 54.0686 86.9796 53.9226 87.2157 53.8166C87.4537 53.7107 87.7233 53.6577 88.0246 53.6577C88.4485 53.6577 88.7814 53.7506 89.0231 53.9366C89.2667 54.1225 89.4396 54.368 89.5419 54.6729ZM93.1433 57.9976H92.4182L94.5156 52.2854H95.2296L97.327 57.9976H96.6019L94.8949 53.1891H94.8503L93.1433 57.9976ZM93.4111 55.7662H96.3341V56.3799H93.4111V55.7662ZM98.7858 52.2854V57.9976H98.1275V52.2854H98.7858ZM100.65 52.2854V57.9976H99.9914V52.2854H100.65ZM101.855 57.9976V53.7134H102.491V54.3605H102.536C102.614 54.1485 102.755 53.9766 102.96 53.8445C103.164 53.7125 103.395 53.6465 103.651 53.6465C103.7 53.6465 103.76 53.6474 103.833 53.6493C103.905 53.6512 103.96 53.6539 103.997 53.6577V54.3271C103.975 54.3215 103.924 54.3131 103.844 54.302C103.766 54.2889 103.683 54.2824 103.596 54.2824C103.387 54.2824 103.201 54.3261 103.038 54.4135C102.876 54.499 102.748 54.6181 102.653 54.7705C102.56 54.9211 102.513 55.0931 102.513 55.2865V57.9976H101.855ZM106.388 58.0868C106.001 58.0868 105.661 57.9948 105.37 57.8107C105.079 57.6266 104.853 57.3691 104.689 57.0381C104.527 56.7071 104.446 56.3204 104.446 55.8778C104.446 55.4316 104.527 55.042 104.689 54.7092C104.853 54.3763 105.079 54.1179 105.37 53.9338C105.661 53.7497 106.001 53.6577 106.388 53.6577C106.774 53.6577 107.113 53.7497 107.403 53.9338C107.695 54.1179 107.922 54.3763 108.083 54.7092C108.247 55.042 108.329 55.4316 108.329 55.8778C108.329 56.3204 108.247 56.7071 108.083 57.0381C107.922 57.3691 107.695 57.6266 107.403 57.8107C107.113 57.9948 106.774 58.0868 106.388 58.0868ZM106.388 57.4955C106.681 57.4955 106.923 57.4202 107.113 57.2696C107.302 57.119 107.443 56.921 107.534 56.6755C107.625 56.4301 107.671 56.1642 107.671 55.8778C107.671 55.5915 107.625 55.3246 107.534 55.0773C107.443 54.83 107.302 54.6301 107.113 54.4777C106.923 54.3252 106.681 54.249 106.388 54.249C106.094 54.249 105.852 54.3252 105.662 54.4777C105.473 54.6301 105.332 54.83 105.241 55.0773C105.15 55.3246 105.105 55.5915 105.105 55.8778C105.105 56.1642 105.15 56.4301 105.241 56.6755C105.332 56.921 105.473 57.119 105.662 57.2696C105.852 57.4202 106.094 57.4955 106.388 57.4955ZM112.033 56.246V53.7134H112.692V57.9976H112.033V57.2724H111.989C111.888 57.4899 111.732 57.6749 111.52 57.8274C111.308 57.978 111.041 58.0533 110.717 58.0533C110.449 58.0533 110.211 57.9948 110.003 57.8776C109.795 57.7586 109.631 57.5801 109.512 57.3421C109.393 57.1022 109.334 56.8001 109.334 56.4356V53.7134H109.992V56.391C109.992 56.7034 110.079 56.9526 110.254 57.1385C110.431 57.3244 110.656 57.4174 110.929 57.4174C111.093 57.4174 111.259 57.3756 111.428 57.2919C111.599 57.2082 111.742 57.0799 111.858 56.907C111.975 56.7341 112.033 56.5137 112.033 56.246ZM114.556 55.4204V57.9976H113.897V53.7134H114.533V54.3828H114.589C114.689 54.1653 114.842 53.9905 115.046 53.8585C115.251 53.7246 115.515 53.6577 115.839 53.6577C116.129 53.6577 116.382 53.7172 116.6 53.8362C116.818 53.9533 116.987 54.1318 117.108 54.3717C117.228 54.6097 117.289 54.9109 117.289 55.2754V57.9976H116.631V55.32C116.631 54.9834 116.543 54.7213 116.368 54.5334C116.194 54.3438 115.954 54.249 115.649 54.249C115.439 54.249 115.251 54.2945 115.085 54.3856C114.922 54.4767 114.793 54.6097 114.698 54.7845C114.603 54.9593 114.556 55.1712 114.556 55.4204ZM120.109 58.0868C119.752 58.0868 119.437 57.9966 119.164 57.8163C118.891 57.634 118.677 57.3774 118.522 57.0465C118.368 56.7136 118.291 56.3204 118.291 55.8667C118.291 55.4167 118.368 55.0262 118.522 54.6952C118.677 54.3642 118.892 54.1086 119.167 53.9282C119.442 53.7478 119.76 53.6577 120.121 53.6577C120.399 53.6577 120.62 53.7041 120.782 53.7971C120.945 53.8882 121.07 53.9924 121.155 54.1095C121.243 54.2248 121.311 54.3196 121.359 54.394H121.415V52.2854H122.073V57.9976H121.437V57.3393H121.359C121.311 57.4174 121.242 57.516 121.153 57.635C121.063 57.7521 120.936 57.8572 120.77 57.9501C120.605 58.0413 120.385 58.0868 120.109 58.0868ZM120.199 57.4955C120.463 57.4955 120.686 57.4267 120.868 57.2891C121.05 57.1497 121.189 56.9572 121.284 56.7118C121.378 56.4645 121.426 56.179 121.426 55.8555C121.426 55.5357 121.379 55.2558 121.286 55.016C121.193 54.7742 121.056 54.5864 120.874 54.4526C120.691 54.3168 120.466 54.249 120.199 54.249C119.92 54.249 119.687 54.3205 119.501 54.4637C119.317 54.605 119.179 54.7975 119.086 55.0411C118.995 55.2828 118.949 55.5543 118.949 55.8555C118.949 56.1604 118.996 56.4375 119.089 56.6867C119.183 56.934 119.323 57.1311 119.507 57.278C119.693 57.423 119.923 57.4955 120.199 57.4955ZM125.166 58.0868C124.753 58.0868 124.397 57.9957 124.098 57.8135C123.8 57.6294 123.571 57.3728 123.409 57.0437C123.249 56.7127 123.169 56.3278 123.169 55.889C123.169 55.4501 123.249 55.0634 123.409 54.7287C123.571 54.3921 123.796 54.13 124.084 53.9422C124.374 53.7525 124.712 53.6577 125.099 53.6577C125.322 53.6577 125.543 53.6948 125.76 53.7692C125.978 53.8436 126.176 53.9645 126.354 54.1318C126.533 54.2973 126.675 54.5167 126.781 54.79C126.887 55.0634 126.94 55.3999 126.94 55.7997V56.0786H123.638V55.5096H126.271C126.271 55.2679 126.222 55.0522 126.126 54.8626C126.031 54.6729 125.895 54.5232 125.718 54.4135C125.544 54.3038 125.337 54.249 125.099 54.249C124.837 54.249 124.61 54.314 124.419 54.4442C124.229 54.5725 124.083 54.7398 123.981 54.9462C123.878 55.1526 123.827 55.3739 123.827 55.6101V55.9894C123.827 56.3129 123.883 56.5872 123.995 56.8122C124.108 57.0353 124.265 57.2054 124.466 57.3226C124.667 57.4379 124.9 57.4955 125.166 57.4955C125.339 57.4955 125.495 57.4713 125.635 57.423C125.776 57.3728 125.898 57.2984 126 57.1999C126.102 57.0995 126.181 56.9749 126.237 56.8261L126.873 57.0046C126.806 57.2203 126.694 57.41 126.536 57.5736C126.378 57.7354 126.182 57.8618 125.95 57.9529C125.717 58.0422 125.456 58.0868 125.166 58.0868ZM127.941 57.9976V53.7134H128.577V54.3605H128.622C128.7 54.1485 128.841 53.9766 129.046 53.8445C129.25 53.7125 129.481 53.6465 129.738 53.6465C129.786 53.6465 129.846 53.6474 129.919 53.6493C129.991 53.6512 130.046 53.6539 130.083 53.6577V54.3271C130.061 54.3215 130.01 54.3131 129.93 54.302C129.852 54.2889 129.769 54.2824 129.682 54.2824C129.473 54.2824 129.288 54.3261 129.124 54.4135C128.962 54.499 128.834 54.6181 128.739 54.7705C128.646 54.9211 128.6 55.0931 128.6 55.2865V57.9976H127.941ZM133.162 57.9976V52.2854H135.092C135.538 52.2854 135.905 52.3616 136.191 52.5141C136.477 52.6647 136.689 52.8721 136.827 53.1361C136.964 53.4001 137.033 53.7004 137.033 54.037C137.033 54.3735 136.964 54.672 136.827 54.9323C136.689 55.1926 136.478 55.3972 136.194 55.5459C135.909 55.6928 135.546 55.7662 135.103 55.7662H133.541V55.1415H135.081C135.386 55.1415 135.631 55.0969 135.817 55.0076C136.005 54.9183 136.141 54.7919 136.224 54.6283C136.31 54.4628 136.353 54.2657 136.353 54.037C136.353 53.8083 136.31 53.6084 136.224 53.4373C136.139 53.2663 136.002 53.1342 135.814 53.0413C135.627 52.9464 135.378 52.899 135.07 52.899H133.854V57.9976H133.162ZM135.851 55.4316L137.256 57.9976H136.453L135.07 55.4316H135.851ZM139.847 58.0868C139.434 58.0868 139.078 57.9957 138.779 57.8135C138.481 57.6294 138.251 57.3728 138.09 57.0437C137.93 56.7127 137.85 56.3278 137.85 55.889C137.85 55.4501 137.93 55.0634 138.09 54.7287C138.251 54.3921 138.476 54.13 138.765 53.9422C139.055 53.7525 139.393 53.6577 139.78 53.6577C140.003 53.6577 140.223 53.6948 140.441 53.7692C140.658 53.8436 140.856 53.9645 141.035 54.1318C141.213 54.2973 141.356 54.5167 141.462 54.79C141.568 55.0634 141.621 55.3999 141.621 55.7997V56.0786H138.318V55.5096H140.951C140.951 55.2679 140.903 55.0522 140.806 54.8626C140.711 54.6729 140.576 54.5232 140.399 54.4135C140.224 54.3038 140.018 54.249 139.78 54.249C139.518 54.249 139.291 54.314 139.099 54.4442C138.91 54.5725 138.764 54.7398 138.661 54.9462C138.559 55.1526 138.508 55.3739 138.508 55.6101V55.9894C138.508 56.3129 138.564 56.5872 138.675 56.8122C138.789 57.0353 138.946 57.2054 139.147 57.3226C139.348 57.4379 139.581 57.4955 139.847 57.4955C140.02 57.4955 140.176 57.4713 140.315 57.423C140.457 57.3728 140.578 57.2984 140.681 57.1999C140.783 57.0995 140.862 56.9749 140.918 56.8261L141.554 57.0046C141.487 57.2203 141.374 57.41 141.216 57.5736C141.058 57.7354 140.863 57.8618 140.631 57.9529C140.398 58.0422 140.137 58.0868 139.847 58.0868ZM145.657 54.6729L145.065 54.8403C145.028 54.7417 144.973 54.6459 144.901 54.553C144.83 54.4581 144.733 54.38 144.611 54.3187C144.488 54.2573 144.331 54.2266 144.139 54.2266C143.877 54.2266 143.659 54.2871 143.484 54.4079C143.311 54.5269 143.224 54.6785 143.224 54.8626C143.224 55.0262 143.284 55.1554 143.403 55.2503C143.522 55.3451 143.708 55.4241 143.961 55.4873L144.597 55.6435C144.98 55.7365 145.265 55.8787 145.453 56.0703C145.641 56.2599 145.735 56.5044 145.735 56.8038C145.735 57.0493 145.664 57.2687 145.523 57.462C145.383 57.6554 145.188 57.8079 144.937 57.9195C144.686 58.031 144.394 58.0868 144.061 58.0868C143.624 58.0868 143.263 57.992 142.976 57.8023C142.69 57.6127 142.509 57.3356 142.432 56.9712L143.057 56.815C143.117 57.0455 143.229 57.2185 143.395 57.3337C143.562 57.449 143.78 57.5067 144.05 57.5067C144.357 57.5067 144.6 57.4416 144.781 57.3114C144.963 57.1794 145.054 57.0214 145.054 56.8373C145.054 56.6885 145.002 56.5639 144.898 56.4635C144.794 56.3613 144.634 56.285 144.418 56.2348L143.704 56.0675C143.312 55.9745 143.024 55.8304 142.84 55.6352C142.657 55.4381 142.566 55.1917 142.566 54.896C142.566 54.6543 142.634 54.4405 142.77 54.2545C142.907 54.0686 143.094 53.9226 143.33 53.8166C143.568 53.7107 143.838 53.6577 144.139 53.6577C144.563 53.6577 144.896 53.7506 145.138 53.9366C145.381 54.1225 145.554 54.368 145.657 54.6729ZM148.522 58.0868C148.109 58.0868 147.753 57.9957 147.453 57.8135C147.156 57.6294 146.926 57.3728 146.765 57.0437C146.605 56.7127 146.525 56.3278 146.525 55.889C146.525 55.4501 146.605 55.0634 146.765 54.7287C146.926 54.3921 147.151 54.13 147.439 53.9422C147.73 53.7525 148.068 53.6577 148.455 53.6577C148.678 53.6577 148.898 53.6948 149.116 53.7692C149.333 53.8436 149.531 53.9645 149.71 54.1318C149.888 54.2973 150.031 54.5167 150.137 54.79C150.243 55.0634 150.296 55.3999 150.296 55.7997V56.0786H146.993V55.5096H149.626C149.626 55.2679 149.578 55.0522 149.481 54.8626C149.386 54.6729 149.251 54.5232 149.074 54.4135C148.899 54.3038 148.693 54.249 148.455 54.249C148.193 54.249 147.966 54.314 147.774 54.4442C147.585 54.5725 147.439 54.7398 147.336 54.9462C147.234 55.1526 147.183 55.3739 147.183 55.6101V55.9894C147.183 56.3129 147.239 56.5872 147.35 56.8122C147.464 57.0353 147.621 57.2054 147.822 57.3226C148.022 57.4379 148.256 57.4955 148.522 57.4955C148.695 57.4955 148.851 57.4713 148.99 57.423C149.132 57.3728 149.253 57.2984 149.356 57.1999C149.458 57.0995 149.537 56.9749 149.593 56.8261L150.229 57.0046C150.162 57.2203 150.049 57.41 149.891 57.5736C149.733 57.7354 149.538 57.8618 149.305 57.9529C149.073 58.0422 148.812 58.0868 148.522 58.0868ZM152.558 58.098C152.286 58.098 152.04 58.0468 151.818 57.9446C151.597 57.8404 151.421 57.6908 151.291 57.4955C151.161 57.2984 151.096 57.0604 151.096 56.7815C151.096 56.5361 151.144 56.3371 151.241 56.1846C151.338 56.0303 151.467 55.9094 151.629 55.822C151.791 55.7346 151.969 55.6696 152.164 55.6268C152.361 55.5822 152.559 55.5468 152.758 55.5208C153.019 55.4873 153.23 55.4622 153.392 55.4455C153.555 55.4269 153.674 55.3962 153.749 55.3535C153.825 55.3107 153.863 55.2363 153.863 55.1303V55.108C153.863 54.8328 153.788 54.619 153.637 54.4665C153.488 54.314 153.262 54.2378 152.959 54.2378C152.645 54.2378 152.399 54.3066 152.22 54.4442C152.042 54.5818 151.916 54.7287 151.844 54.8849L151.219 54.6617C151.33 54.4014 151.479 54.1988 151.665 54.0537C151.853 53.9068 152.057 53.8046 152.279 53.7469C152.502 53.6874 152.721 53.6577 152.937 53.6577C153.074 53.6577 153.233 53.6744 153.411 53.7079C153.591 53.7395 153.765 53.8055 153.933 53.9059C154.102 54.0063 154.242 54.1578 154.354 54.3605C154.465 54.5632 154.521 54.8347 154.521 55.175V57.9976H153.863V57.4174H153.829C153.785 57.5104 153.71 57.6099 153.606 57.7159C153.502 57.8218 153.364 57.912 153.191 57.9864C153.018 58.0608 152.807 58.098 152.558 58.098ZM152.658 57.5067C152.918 57.5067 153.138 57.4555 153.316 57.3533C153.497 57.251 153.632 57.119 153.723 56.9572C153.816 56.7954 153.863 56.6253 153.863 56.4468V55.8443C153.835 55.8778 153.774 55.9085 153.679 55.9364C153.586 55.9624 153.478 55.9857 153.355 56.0061C153.234 56.0247 153.116 56.0414 153.001 56.0563C152.888 56.0693 152.796 56.0805 152.725 56.0898C152.554 56.1121 152.394 56.1484 152.245 56.1986C152.098 56.2469 151.979 56.3204 151.888 56.4189C151.799 56.5156 151.754 56.6476 151.754 56.815C151.754 57.0437 151.839 57.2166 152.008 57.3337C152.179 57.449 152.396 57.5067 152.658 57.5067ZM155.723 57.9976V53.7134H156.358V54.3605H156.403C156.481 54.1485 156.623 53.9766 156.827 53.8445C157.032 53.7125 157.262 53.6465 157.519 53.6465C157.567 53.6465 157.628 53.6474 157.7 53.6493C157.773 53.6512 157.827 53.6539 157.865 53.6577V54.3271C157.842 54.3215 157.791 54.3131 157.711 54.302C157.633 54.2889 157.55 54.2824 157.463 54.2824C157.255 54.2824 157.069 54.3261 156.905 54.4135C156.743 54.499 156.615 54.6181 156.52 54.7705C156.427 54.9211 156.381 55.0931 156.381 55.2865V57.9976H155.723ZM160.255 58.0868C159.853 58.0868 159.507 57.992 159.217 57.8023C158.927 57.6127 158.704 57.3514 158.548 57.0186C158.392 56.6857 158.314 56.3055 158.314 55.8778C158.314 55.4427 158.394 55.0587 158.554 54.7259C158.715 54.3912 158.94 54.13 159.228 53.9422C159.519 53.7525 159.857 53.6577 160.244 53.6577C160.545 53.6577 160.816 53.7134 161.058 53.825C161.3 53.9366 161.498 54.0928 161.652 54.2936C161.807 54.4944 161.902 54.7287 161.94 54.9964H161.281C161.231 54.8012 161.12 54.6283 160.947 54.4777C160.776 54.3252 160.545 54.249 160.255 54.249C159.998 54.249 159.773 54.3159 159.58 54.4498C159.388 54.5818 159.239 54.7687 159.131 55.0104C159.025 55.2503 158.972 55.532 158.972 55.8555C158.972 56.1865 159.024 56.4747 159.128 56.7201C159.234 56.9656 159.383 57.1562 159.574 57.2919C159.768 57.4276 159.995 57.4955 160.255 57.4955C160.426 57.4955 160.581 57.4658 160.721 57.4063C160.86 57.3468 160.978 57.2612 161.075 57.1497C161.172 57.0381 161.24 56.9042 161.281 56.748H161.94C161.902 57.0009 161.81 57.2287 161.663 57.4314C161.518 57.6322 161.326 57.7921 161.086 57.9111C160.848 58.0282 160.571 58.0868 160.255 58.0868ZM163.56 55.4204V57.9976H162.902V52.2854H163.56V54.3828H163.616C163.716 54.1616 163.867 53.9858 164.068 53.8557C164.27 53.7237 164.54 53.6577 164.876 53.6577C165.168 53.6577 165.424 53.7162 165.644 53.8334C165.863 53.9487 166.033 54.1262 166.154 54.3661C166.277 54.6041 166.338 54.9072 166.338 55.2754V57.9976H165.68V55.32C165.68 54.9797 165.591 54.7166 165.415 54.5307C165.24 54.3429 164.997 54.249 164.687 54.249C164.471 54.249 164.278 54.2945 164.107 54.3856C163.937 54.4767 163.804 54.6097 163.705 54.7845C163.608 54.9593 163.56 55.1712 163.56 55.4204ZM173.745 54.0705C173.684 53.8826 173.603 53.7144 173.503 53.5656C173.404 53.415 173.286 53.2867 173.148 53.1807C173.013 53.0747 172.858 52.9938 172.685 52.9381C172.512 52.8823 172.323 52.8544 172.116 52.8544C171.778 52.8544 171.47 52.9418 171.193 53.1166C170.916 53.2914 170.696 53.5489 170.532 53.8892C170.369 54.2294 170.287 54.6469 170.287 55.1415C170.287 55.6361 170.369 56.0535 170.535 56.3938C170.7 56.7341 170.925 56.9916 171.207 57.1664C171.49 57.3412 171.808 57.4286 172.161 57.4286C172.488 57.4286 172.776 57.3588 173.026 57.2194C173.277 57.0781 173.472 56.8791 173.611 56.6225C173.753 56.3641 173.823 56.06 173.823 55.7105L174.035 55.7551H172.317V55.1415H174.493V55.7551C174.493 56.2255 174.392 56.6346 174.192 56.9823C173.993 57.33 173.717 57.5996 173.366 57.7912C173.016 57.9808 172.615 58.0757 172.161 58.0757C171.655 58.0757 171.211 57.9567 170.828 57.7186C170.447 57.4806 170.149 57.1422 169.935 56.7034C169.723 56.2646 169.617 55.7439 169.617 55.1415C169.617 54.6896 169.678 54.2834 169.799 53.9226C169.921 53.56 170.094 53.2514 170.317 52.9966C170.541 52.7419 170.805 52.5467 171.11 52.4109C171.414 52.2752 171.75 52.2073 172.116 52.2073C172.418 52.2073 172.698 52.2529 172.959 52.344C173.221 52.4332 173.454 52.5606 173.659 52.7261C173.865 52.8897 174.037 53.0859 174.175 53.3146C174.312 53.5414 174.407 53.7934 174.459 54.0705H173.745ZM178.288 56.246V53.7134H178.946V57.9976H178.288V57.2724H178.243C178.143 57.4899 177.987 57.6749 177.775 57.8274C177.563 57.978 177.295 58.0533 176.972 58.0533C176.704 58.0533 176.466 57.9948 176.258 57.8776C176.049 57.7586 175.886 57.5801 175.767 57.3421C175.648 57.1022 175.588 56.8001 175.588 56.4356V53.7134H176.246V56.391C176.246 56.7034 176.334 56.9526 176.509 57.1385C176.685 57.3244 176.91 57.4174 177.184 57.4174C177.347 57.4174 177.514 57.3756 177.683 57.2919C177.854 57.2082 177.997 57.0799 178.112 56.907C178.229 56.7341 178.288 56.5137 178.288 56.246ZM180.152 57.9976V53.7134H180.81V57.9976H180.152ZM180.487 52.9994C180.358 52.9994 180.248 52.9557 180.155 52.8683C180.064 52.7809 180.018 52.6759 180.018 52.5532C180.018 52.4304 180.064 52.3254 180.155 52.238C180.248 52.1506 180.358 52.1069 180.487 52.1069C180.615 52.1069 180.725 52.1506 180.816 52.238C180.909 52.3254 180.955 52.4304 180.955 52.5532C180.955 52.6759 180.909 52.7809 180.816 52.8683C180.725 52.9557 180.615 52.9994 180.487 52.9994ZM183.633 58.0868C183.276 58.0868 182.961 57.9966 182.688 57.8163C182.415 57.634 182.201 57.3774 182.046 57.0465C181.892 56.7136 181.815 56.3204 181.815 55.8667C181.815 55.4167 181.892 55.0262 182.046 54.6952C182.201 54.3642 182.416 54.1086 182.691 53.9282C182.966 53.7478 183.284 53.6577 183.645 53.6577C183.924 53.6577 184.144 53.7041 184.306 53.7971C184.469 53.8882 184.594 53.9924 184.679 54.1095C184.767 54.2248 184.835 54.3196 184.883 54.394H184.939V52.2854H185.597V57.9976H184.961V57.3393H184.883C184.835 57.4174 184.766 57.516 184.677 57.635C184.587 57.7521 184.46 57.8572 184.294 57.9501C184.129 58.0413 183.909 58.0868 183.633 58.0868ZM183.723 57.4955C183.987 57.4955 184.21 57.4267 184.392 57.2891C184.574 57.1497 184.713 56.9572 184.808 56.7118C184.903 56.4645 184.95 56.179 184.95 55.8555C184.95 55.5357 184.903 55.2558 184.81 55.016C184.717 54.7742 184.58 54.5864 184.398 54.4526C184.215 54.3168 183.99 54.249 183.723 54.249C183.444 54.249 183.211 54.3205 183.025 54.4637C182.841 54.605 182.703 54.7975 182.61 55.0411C182.519 55.2828 182.473 55.5543 182.473 55.8555C182.473 56.1604 182.52 56.4375 182.613 56.6867C182.707 56.934 182.847 57.1311 183.031 57.278C183.217 57.423 183.448 57.4955 183.723 57.4955ZM188.69 58.0868C188.277 58.0868 187.921 57.9957 187.622 57.8135C187.324 57.6294 187.095 57.3728 186.933 57.0437C186.773 56.7127 186.693 56.3278 186.693 55.889C186.693 55.4501 186.773 55.0634 186.933 54.7287C187.095 54.3921 187.32 54.13 187.608 53.9422C187.898 53.7525 188.236 53.6577 188.623 53.6577C188.846 53.6577 189.067 53.6948 189.284 53.7692C189.502 53.8436 189.7 53.9645 189.878 54.1318C190.057 54.2973 190.199 54.5167 190.305 54.79C190.411 55.0634 190.464 55.3999 190.464 55.7997V56.0786H187.162V55.5096H189.795C189.795 55.2679 189.746 55.0522 189.65 54.8626C189.555 54.6729 189.419 54.5232 189.242 54.4135C189.068 54.3038 188.861 54.249 188.623 54.249C188.361 54.249 188.134 54.314 187.943 54.4442C187.753 54.5725 187.607 54.7398 187.505 54.9462C187.403 55.1526 187.351 55.3739 187.351 55.6101V55.9894C187.351 56.3129 187.407 56.5872 187.519 56.8122C187.632 57.0353 187.789 57.2054 187.99 57.3226C188.191 57.4379 188.424 57.4955 188.69 57.4955C188.863 57.4955 189.019 57.4713 189.159 57.423C189.3 57.3728 189.422 57.2984 189.524 57.1999C189.626 57.0995 189.705 56.9749 189.761 56.8261L190.397 57.0046C190.33 57.2203 190.218 57.41 190.06 57.5736C189.902 57.7354 189.706 57.8618 189.474 57.9529C189.241 58.0422 188.98 58.0868 188.69 58.0868Z" fill="black"/>
</svg>
