<svg width="27" height="25" viewBox="0 0 27 25" fill="none" xmlns="http://www.w3.org/2000/svg">
<g clip-path="url(#clip0_785_5435)">
<path d="M8.91657 12.5C7.47014 12.5446 6.28711 13.1161 5.36747 14.2143H3.57282C2.84068 14.2143 2.22461 14.0335 1.72461 13.6719C1.22461 13.3103 0.974609 12.7812 0.974609 12.0848C0.974609 8.93304 1.52818 7.35714 2.63532 7.35714C2.68889 7.35714 2.88309 7.45089 3.21791 7.63839C3.55273 7.82589 3.988 8.01562 4.52372 8.20759C5.05943 8.39955 5.59068 8.49554 6.11747 8.49554C6.71568 8.49554 7.30943 8.39286 7.89872 8.1875C7.85407 8.51786 7.83175 8.8125 7.83175 9.07143C7.83175 10.3125 8.19336 11.4554 8.91657 12.5ZM23.2603 21.0312C23.2603 22.1027 22.9344 22.9487 22.2826 23.5692C21.6309 24.1897 20.7648 24.5 19.6844 24.5H7.97907C6.89872 24.5 6.03264 24.1897 5.38086 23.5692C4.72907 22.9487 4.40318 22.1027 4.40318 21.0312C4.40318 20.558 4.41881 20.096 4.45006 19.6451C4.48131 19.1942 4.54381 18.7076 4.63756 18.1853C4.73131 17.6629 4.84961 17.1786 4.99247 16.7321C5.13532 16.2857 5.32729 15.8504 5.56836 15.4263C5.80943 15.0022 6.08622 14.6406 6.39872 14.3415C6.71122 14.0424 7.09291 13.8036 7.54381 13.625C7.9947 13.4464 8.49247 13.3571 9.03711 13.3571C9.12639 13.3571 9.31836 13.4531 9.613 13.6451C9.90764 13.8371 10.2335 14.0513 10.5907 14.2879C10.9478 14.5246 11.4255 14.7388 12.0237 14.9308C12.6219 15.1228 13.2246 15.2188 13.8318 15.2188C14.4389 15.2188 15.0416 15.1228 15.6398 14.9308C16.238 14.7388 16.7157 14.5246 17.0728 14.2879C17.43 14.0513 17.7559 13.8371 18.0505 13.6451C18.3451 13.4531 18.5371 13.3571 18.6264 13.3571C19.171 13.3571 19.6688 13.4464 20.1197 13.625C20.5706 13.8036 20.9523 14.0424 21.2648 14.3415C21.5773 14.6406 21.8541 15.0022 22.0951 15.4263C22.3362 15.8504 22.5282 16.2857 22.671 16.7321C22.8139 17.1786 22.9322 17.6629 23.0259 18.1853C23.1197 18.7076 23.1822 19.1942 23.2134 19.6451C23.2447 20.096 23.2603 20.558 23.2603 21.0312ZM9.54604 3.92857C9.54604 4.875 9.21122 5.68304 8.54157 6.35268C7.87193 7.02232 7.06389 7.35714 6.11747 7.35714C5.17104 7.35714 4.363 7.02232 3.69336 6.35268C3.02372 5.68304 2.68889 4.875 2.68889 3.92857C2.68889 2.98214 3.02372 2.17411 3.69336 1.50446C4.363 0.834821 5.17104 0.5 6.11747 0.5C7.06389 0.5 7.87193 0.834821 8.54157 1.50446C9.21122 2.17411 9.54604 2.98214 9.54604 3.92857ZM18.9746 9.07143C18.9746 10.4911 18.4724 11.7031 17.4679 12.7076C16.4634 13.7121 15.2514 14.2143 13.8318 14.2143C12.4121 14.2143 11.2001 13.7121 10.1956 12.7076C9.19113 11.7031 8.68889 10.4911 8.68889 9.07143C8.68889 7.65179 9.19113 6.43973 10.1956 5.43527C11.2001 4.4308 12.4121 3.92857 13.8318 3.92857C15.2514 3.92857 16.4634 4.4308 17.4679 5.43527C18.4724 6.43973 18.9746 7.65179 18.9746 9.07143ZM26.6889 12.0848C26.6889 12.7812 26.4389 13.3103 25.9389 13.6719C25.4389 14.0335 24.8228 14.2143 24.0907 14.2143H22.296C21.3764 13.1161 20.1934 12.5446 18.7469 12.5C19.4701 11.4554 19.8318 10.3125 19.8318 9.07143C19.8318 8.8125 19.8094 8.51786 19.7648 8.1875C20.3541 8.39286 20.9478 8.49554 21.546 8.49554C22.0728 8.49554 22.6041 8.39955 23.1398 8.20759C23.6755 8.01562 24.1108 7.82589 24.4456 7.63839C24.7804 7.45089 24.9746 7.35714 25.0282 7.35714C26.1353 7.35714 26.6889 8.93304 26.6889 12.0848ZM24.9746 3.92857C24.9746 4.875 24.6398 5.68304 23.9701 6.35268C23.3005 7.02232 22.4925 7.35714 21.546 7.35714C20.5996 7.35714 19.7916 7.02232 19.1219 6.35268C18.4523 5.68304 18.1175 4.875 18.1175 3.92857C18.1175 2.98214 18.4523 2.17411 19.1219 1.50446C19.7916 0.834821 20.5996 0.5 21.546 0.5C22.4925 0.5 23.3005 0.834821 23.9701 1.50446C24.6398 2.17411 24.9746 2.98214 24.9746 3.92857Z" fill="black"/>
</g>
<defs>
<clipPath id="clip0_785_5435">
<rect width="25.7143" height="24" fill="white" transform="translate(0.974609 0.5)"/>
</clipPath>
</defs>
</svg>
