<svg width="56" height="56" viewBox="0 0 56 56" fill="none" xmlns="http://www.w3.org/2000/svg">
<circle cx="28" cy="28" r="26.6" stroke="black" stroke-width="2.8"/>
<path d="M20.2161 20.4135C20.2161 18.2785 21.0643 16.2309 22.5739 14.7213C24.0836 13.2116 26.1312 12.3635 28.2661 12.3635C30.4011 12.3635 32.4487 13.2116 33.9584 14.7213C35.468 16.2309 36.3161 18.2785 36.3161 20.4135C36.3161 22.5485 35.468 24.596 33.9584 26.1057C32.4487 27.6154 30.4011 28.4635 28.2661 28.4635C26.1312 28.4635 24.0836 27.6154 22.5739 26.1057C21.0643 24.596 20.2161 22.5485 20.2161 20.4135ZM27.9833 30.5789C28.0436 30.5698 28.1044 30.5646 28.1653 30.5635H28.3669C28.4285 30.5635 28.4892 30.5686 28.5489 30.5789L38.7619 32.3751L38.8151 32.3863C40.6967 32.8203 42.7183 34.0145 43.1117 36.3343L43.1173 36.3749L43.2769 37.6027V37.6055C43.6465 40.4181 41.4163 42.4635 38.7829 42.4635C38.7248 42.4624 38.6669 42.4577 38.6093 42.4495H17.7493C15.1159 42.4495 12.8843 40.4027 13.2553 37.5887L13.4149 36.3721L13.4219 36.3301C13.8139 34.0523 15.8523 32.7909 17.7297 32.3835L17.7703 32.3751L27.9833 30.5789Z" fill="black"/>
</svg>
