<svg width="14" height="20" viewBox="0 0 14 20" fill="none" xmlns="http://www.w3.org/2000/svg">
<path d="M6.687 12.047C7.155 12.047 7.572 11.969 7.938 11.813C8.31 11.657 8.622 11.438 8.874 11.156C9.126 10.874 9.318 10.532 9.45 10.13C9.588 9.728 9.657 9.278 9.657 8.78V0.985999H12.078V8.78C12.078 9.554 11.952 10.271 11.7 10.931C11.454 11.585 11.097 12.152 10.629 12.632C10.167 13.106 9.603 13.478 8.937 13.748C8.271 14.012 7.521 14.144 6.687 14.144C5.847 14.144 5.094 14.012 4.428 13.748C3.762 13.478 3.195 13.106 2.727 12.632C2.265 12.152 1.908 11.585 1.656 10.931C1.41 10.271 1.287 9.554 1.287 8.78V0.985999H3.708V8.771C3.708 9.269 3.774 9.719 3.906 10.121C4.044 10.523 4.239 10.868 4.491 11.156C4.749 11.438 5.061 11.657 5.427 11.813C5.799 11.969 6.219 12.047 6.687 12.047Z" fill="black"/>
<path d="M0 18.59H13.365V19.481H0V18.59Z" fill="black"/>
</svg>
