<svg width="895" height="112" viewBox="0 0 895 112" fill="none" xmlns="http://www.w3.org/2000/svg">
<path d="M124.1 3.23999L97.16 90H82.58L63.62 30.72C63.1 29.28 62.62 27.52 62.18 25.44C61.94 26.44 61.7 27.38 61.46 28.26C61.22 29.14 60.96 29.96 60.68 30.72L41.54 90H26.9L0.0200001 3.23999H13.52C14.92 3.23999 16.08 3.58 17 4.26C17.96 4.9 18.6 5.77999 18.92 6.89999L33.68 58.8C34 60.08 34.3 61.48 34.58 63C34.9 64.48 35.22 66.04 35.54 67.68C35.86 66 36.2 64.42 36.56 62.94C36.96 61.46 37.38 60.08 37.82 58.8L54.86 6.89999C55.18 5.97999 55.8 5.13999 56.72 4.38C57.68 3.62 58.84 3.23999 60.2 3.23999H64.94C66.34 3.23999 67.48 3.58 68.36 4.26C69.24 4.94 69.9 5.82 70.34 6.89999L87.32 58.8C88.16 61.28 88.92 64.14 89.6 67.38C90.12 64.22 90.7 61.36 91.34 58.8L106.1 6.89999C106.34 5.89999 106.94 5.03999 107.9 4.31999C108.9 3.59999 110.08 3.23999 111.44 3.23999H124.1ZM152.388 27.48C156.948 27.48 161.088 28.22 164.808 29.7C168.568 31.18 171.768 33.28 174.408 36C177.088 38.72 179.148 42.04 180.588 45.96C182.028 49.88 182.748 54.26 182.748 59.1C182.748 63.98 182.028 68.38 180.588 72.3C179.148 76.22 177.088 79.56 174.408 82.32C171.768 85.08 168.568 87.2 164.808 88.68C161.088 90.16 156.948 90.9 152.388 90.9C147.788 90.9 143.608 90.16 139.848 88.68C136.088 87.2 132.868 85.08 130.188 82.32C127.548 79.56 125.488 76.22 124.008 72.3C122.568 68.38 121.848 63.98 121.848 59.1C121.848 54.26 122.568 49.88 124.008 45.96C125.488 42.04 127.548 38.72 130.188 36C132.868 33.28 136.088 31.18 139.848 29.7C143.608 28.22 147.788 27.48 152.388 27.48ZM152.388 79.5C157.508 79.5 161.288 77.78 163.728 74.34C166.208 70.9 167.448 65.86 167.448 59.22C167.448 52.58 166.208 47.52 163.728 44.04C161.288 40.56 157.508 38.82 152.388 38.82C147.188 38.82 143.328 40.58 140.808 44.1C138.328 47.58 137.088 52.62 137.088 59.22C137.088 65.82 138.328 70.86 140.808 74.34C143.328 77.78 147.188 79.5 152.388 79.5ZM208.034 39.12C209.954 35.44 212.234 32.56 214.874 30.48C217.514 28.36 220.634 27.3 224.234 27.3C227.074 27.3 229.354 27.92 231.074 29.16L230.114 40.26C229.914 40.98 229.614 41.5 229.214 41.82C228.854 42.1 228.354 42.24 227.714 42.24C227.114 42.24 226.214 42.14 225.014 41.94C223.854 41.74 222.714 41.64 221.594 41.64C219.954 41.64 218.494 41.88 217.214 42.36C215.934 42.84 214.774 43.54 213.734 44.46C212.734 45.34 211.834 46.42 211.034 47.7C210.274 48.98 209.554 50.44 208.874 52.08V90H194.054V28.44H202.754C204.274 28.44 205.334 28.72 205.934 29.28C206.534 29.8 206.934 30.76 207.134 32.16L208.034 39.12ZM253.64 0.839996V51.9H256.4C257.4 51.9 258.18 51.78 258.74 51.54C259.34 51.26 259.94 50.72 260.54 49.92L275.84 31.02C276.48 30.18 277.18 29.54 277.94 29.1C278.74 28.66 279.76 28.44 281 28.44H294.56L275.42 51.3C274.06 53.1 272.58 54.48 270.98 55.44C271.82 56.04 272.56 56.74 273.2 57.54C273.88 58.34 274.52 59.2 275.12 60.12L295.64 90H282.26C281.1 90 280.1 89.82 279.26 89.46C278.42 89.06 277.72 88.36 277.16 87.36L261.44 64.02C260.88 63.1 260.3 62.5 259.7 62.22C259.1 61.94 258.2 61.8 257 61.8H253.64V90H238.82V0.839996H253.64ZM318.282 28.44V90H303.402V28.44H318.282ZM320.322 10.5C320.322 11.78 320.062 12.98 319.542 14.1C319.022 15.22 318.322 16.2 317.442 17.04C316.602 17.88 315.602 18.56 314.442 19.08C313.282 19.56 312.042 19.8 310.722 19.8C309.442 19.8 308.222 19.56 307.062 19.08C305.942 18.56 304.962 17.88 304.122 17.04C303.282 16.2 302.602 15.22 302.082 14.1C301.602 12.98 301.362 11.78 301.362 10.5C301.362 9.18 301.602 7.94 302.082 6.77999C302.602 5.62 303.282 4.62 304.122 3.78C304.962 2.94 305.942 2.28 307.062 1.8C308.222 1.28 309.442 1.02 310.722 1.02C312.042 1.02 313.282 1.28 314.442 1.8C315.602 2.28 316.602 2.94 317.442 3.78C318.322 4.62 319.022 5.62 319.542 6.77999C320.062 7.94 320.322 9.18 320.322 10.5ZM347.25 36C348.49 34.76 349.79 33.62 351.15 32.58C352.55 31.5 354.01 30.6 355.53 29.88C357.09 29.12 358.75 28.54 360.51 28.14C362.27 27.7 364.19 27.48 366.27 27.48C369.63 27.48 372.61 28.06 375.21 29.22C377.81 30.34 379.97 31.94 381.69 34.02C383.45 36.06 384.77 38.52 385.65 41.4C386.57 44.24 387.03 47.38 387.03 50.82V90H372.21V50.82C372.21 47.06 371.35 44.16 369.63 42.12C367.91 40.04 365.29 39 361.77 39C359.21 39 356.81 39.58 354.57 40.74C352.33 41.9 350.21 43.48 348.21 45.48V90H333.39V28.44H342.45C344.37 28.44 345.63 29.34 346.23 31.14L347.25 36ZM423.625 57.72C425.465 57.72 427.065 57.48 428.425 57C429.785 56.48 430.905 55.78 431.785 54.9C432.705 54.02 433.385 52.96 433.825 51.72C434.305 50.48 434.545 49.12 434.545 47.64C434.545 44.6 433.625 42.2 431.785 40.44C429.985 38.64 427.265 37.74 423.625 37.74C419.985 37.74 417.245 38.64 415.405 40.44C413.605 42.2 412.705 44.6 412.705 47.64C412.705 49.08 412.925 50.42 413.365 51.66C413.845 52.9 414.525 53.98 415.405 54.9C416.325 55.78 417.465 56.48 418.825 57C420.225 57.48 421.825 57.72 423.625 57.72ZM440.365 92.76C440.365 91.56 440.005 90.58 439.285 89.82C438.565 89.06 437.585 88.48 436.345 88.08C435.105 87.64 433.645 87.32 431.965 87.12C430.325 86.92 428.565 86.78 426.685 86.7C424.845 86.58 422.925 86.48 420.925 86.4C418.965 86.32 417.045 86.16 415.165 85.92C413.525 86.84 412.185 87.92 411.145 89.16C410.145 90.4 409.645 91.84 409.645 93.48C409.645 94.56 409.905 95.56 410.425 96.48C410.985 97.44 411.845 98.26 413.005 98.94C414.205 99.62 415.745 100.14 417.625 100.5C419.505 100.9 421.805 101.1 424.525 101.1C427.285 101.1 429.665 100.88 431.665 100.44C433.665 100.04 435.305 99.46 436.585 98.7C437.905 97.98 438.865 97.1 439.465 96.06C440.065 95.06 440.365 93.96 440.365 92.76ZM455.125 30.54V36.06C455.125 37.82 454.065 38.9 451.945 39.3L446.425 40.32C447.265 42.44 447.685 44.76 447.685 47.28C447.685 50.32 447.065 53.08 445.825 55.56C444.625 58 442.945 60.08 440.785 61.8C438.625 63.52 436.065 64.86 433.105 65.82C430.185 66.74 427.025 67.2 423.625 67.2C422.425 67.2 421.265 67.14 420.145 67.02C419.025 66.9 417.925 66.74 416.845 66.54C414.925 67.7 413.965 69 413.965 70.44C413.965 71.68 414.525 72.6 415.645 73.2C416.805 73.76 418.325 74.16 420.205 74.4C422.085 74.64 424.225 74.8 426.625 74.88C429.025 74.92 431.485 75.04 434.005 75.24C436.525 75.44 438.985 75.8 441.385 76.32C443.785 76.8 445.925 77.58 447.805 78.66C449.685 79.74 451.185 81.22 452.305 83.1C453.465 84.94 454.045 87.32 454.045 90.24C454.045 92.96 453.365 95.6 452.005 98.16C450.685 100.72 448.745 103 446.185 105C443.665 107 440.545 108.6 436.825 109.8C433.145 111.04 428.945 111.66 424.225 111.66C419.585 111.66 415.545 111.2 412.105 110.28C408.665 109.4 405.805 108.2 403.525 106.68C401.245 105.2 399.545 103.48 398.425 101.52C397.305 99.56 396.745 97.52 396.745 95.4C396.745 92.52 397.605 90.12 399.325 88.2C401.085 86.24 403.485 84.68 406.525 83.52C404.885 82.68 403.585 81.56 402.625 80.16C401.665 78.76 401.185 76.92 401.185 74.64C401.185 73.72 401.345 72.78 401.665 71.82C402.025 70.82 402.525 69.84 403.165 68.88C403.845 67.92 404.685 67.02 405.685 66.18C406.685 65.3 407.865 64.52 409.225 63.84C406.105 62.16 403.645 59.92 401.845 57.12C400.085 54.32 399.205 51.04 399.205 47.28C399.205 44.24 399.805 41.5 401.005 39.06C402.245 36.58 403.945 34.48 406.105 32.76C408.305 31 410.885 29.66 413.845 28.74C416.845 27.82 420.105 27.36 423.625 27.36C426.265 27.36 428.745 27.64 431.065 28.2C433.385 28.72 435.505 29.5 437.425 30.54H455.125ZM524.243 46.86C527.203 46.86 529.783 46.5 531.983 45.78C534.183 45.02 536.003 43.96 537.443 42.6C538.923 41.2 540.023 39.52 540.743 37.56C541.463 35.56 541.823 33.34 541.823 30.9C541.823 28.58 541.463 26.48 540.743 24.6C540.023 22.72 538.943 21.12 537.503 19.8C536.063 18.48 534.243 17.48 532.043 16.8C529.843 16.08 527.243 15.72 524.243 15.72H512.183V46.86H524.243ZM524.243 3.23999C530.043 3.23999 535.063 3.91999 539.303 5.28C543.543 6.64 547.043 8.54 549.803 10.98C552.563 13.42 554.603 16.34 555.923 19.74C557.283 23.14 557.963 26.86 557.963 30.9C557.963 35.1 557.263 38.96 555.863 42.48C554.463 45.96 552.363 48.96 549.563 51.48C546.763 54 543.243 55.96 539.003 57.36C534.803 58.76 529.883 59.46 524.243 59.46H512.183V90H496.043V3.23999H524.243ZM581.042 39.12C582.962 35.44 585.242 32.56 587.882 30.48C590.522 28.36 593.642 27.3 597.242 27.3C600.082 27.3 602.362 27.92 604.082 29.16L603.122 40.26C602.922 40.98 602.622 41.5 602.222 41.82C601.862 42.1 601.362 42.24 600.722 42.24C600.122 42.24 599.222 42.14 598.022 41.94C596.862 41.74 595.722 41.64 594.602 41.64C592.962 41.64 591.502 41.88 590.222 42.36C588.942 42.84 587.782 43.54 586.742 44.46C585.742 45.34 584.842 46.42 584.042 47.7C583.282 48.98 582.562 50.44 581.882 52.08V90H567.062V28.44H575.762C577.282 28.44 578.342 28.72 578.942 29.28C579.542 29.8 579.942 30.76 580.142 32.16L581.042 39.12ZM637.31 27.48C641.87 27.48 646.01 28.22 649.73 29.7C653.49 31.18 656.69 33.28 659.33 36C662.01 38.72 664.07 42.04 665.51 45.96C666.95 49.88 667.67 54.26 667.67 59.1C667.67 63.98 666.95 68.38 665.51 72.3C664.07 76.22 662.01 79.56 659.33 82.32C656.69 85.08 653.49 87.2 649.73 88.68C646.01 90.16 641.87 90.9 637.31 90.9C632.71 90.9 628.53 90.16 624.77 88.68C621.01 87.2 617.79 85.08 615.11 82.32C612.47 79.56 610.41 76.22 608.93 72.3C607.49 68.38 606.77 63.98 606.77 59.1C606.77 54.26 607.49 49.88 608.93 45.96C610.41 42.04 612.47 38.72 615.11 36C617.79 33.28 621.01 31.18 624.77 29.7C628.53 28.22 632.71 27.48 637.31 27.48ZM637.31 79.5C642.43 79.5 646.21 77.78 648.65 74.34C651.13 70.9 652.37 65.86 652.37 59.22C652.37 52.58 651.13 47.52 648.65 44.04C646.21 40.56 642.43 38.82 637.31 38.82C632.11 38.82 628.25 40.58 625.73 44.1C623.25 47.58 622.01 52.62 622.01 59.22C622.01 65.82 623.25 70.86 625.73 74.34C628.25 77.78 632.11 79.5 637.31 79.5ZM723.076 41.46C722.636 42.02 722.196 42.46 721.756 42.78C721.356 43.1 720.756 43.26 719.956 43.26C719.196 43.26 718.456 43.04 717.736 42.6C717.016 42.12 716.156 41.6 715.156 41.04C714.156 40.44 712.956 39.92 711.556 39.48C710.196 39 708.496 38.76 706.456 38.76C703.856 38.76 701.576 39.24 699.616 40.2C697.656 41.12 696.016 42.46 694.696 44.22C693.416 45.98 692.456 48.12 691.816 50.64C691.176 53.12 690.856 55.94 690.856 59.1C690.856 62.38 691.196 65.3 691.876 67.86C692.596 70.42 693.616 72.58 694.936 74.34C696.256 76.06 697.856 77.38 699.736 78.3C701.616 79.18 703.736 79.62 706.096 79.62C708.456 79.62 710.356 79.34 711.796 78.78C713.276 78.18 714.516 77.54 715.516 76.86C716.516 76.14 717.376 75.5 718.096 74.94C718.856 74.34 719.696 74.04 720.616 74.04C721.816 74.04 722.716 74.5 723.316 75.42L727.576 80.82C725.936 82.74 724.156 84.36 722.236 85.68C720.316 86.96 718.316 88 716.236 88.8C714.196 89.56 712.076 90.1 709.876 90.42C707.716 90.74 705.556 90.9 703.396 90.9C699.596 90.9 696.016 90.2 692.656 88.8C689.296 87.36 686.356 85.28 683.836 82.56C681.316 79.84 679.316 76.52 677.836 72.6C676.396 68.64 675.676 64.14 675.676 59.1C675.676 54.58 676.316 50.4 677.596 46.56C678.916 42.68 680.836 39.34 683.356 36.54C685.876 33.7 688.996 31.48 692.716 29.88C696.436 28.28 700.716 27.48 705.556 27.48C710.156 27.48 714.176 28.22 717.616 29.7C721.096 31.18 724.216 33.3 726.976 36.06L723.076 41.46ZM775.472 52.14C775.472 50.22 775.192 48.42 774.632 46.74C774.112 45.02 773.312 43.52 772.232 42.24C771.152 40.96 769.772 39.96 768.092 39.24C766.452 38.48 764.532 38.1 762.332 38.1C758.052 38.1 754.672 39.32 752.192 41.76C749.752 44.2 748.192 47.66 747.512 52.14H775.472ZM747.212 61.08C747.452 64.24 748.012 66.98 748.892 69.3C749.772 71.58 750.932 73.48 752.372 75C753.812 76.48 755.512 77.6 757.472 78.36C759.472 79.08 761.672 79.44 764.072 79.44C766.472 79.44 768.532 79.16 770.252 78.6C772.012 78.04 773.532 77.42 774.812 76.74C776.132 76.06 777.272 75.44 778.232 74.88C779.232 74.32 780.192 74.04 781.112 74.04C782.352 74.04 783.272 74.5 783.872 75.42L788.132 80.82C786.492 82.74 784.652 84.36 782.612 85.68C780.572 86.96 778.432 88 776.192 88.8C773.992 89.56 771.732 90.1 769.412 90.42C767.132 90.74 764.912 90.9 762.752 90.9C758.472 90.9 754.492 90.2 750.812 88.8C747.132 87.36 743.932 85.26 741.212 82.5C738.492 79.7 736.352 76.26 734.792 72.18C733.232 68.06 732.452 63.3 732.452 57.9C732.452 53.7 733.132 49.76 734.492 46.08C735.852 42.36 737.792 39.14 740.312 36.42C742.872 33.66 745.972 31.48 749.612 29.88C753.292 28.28 757.432 27.48 762.032 27.48C765.912 27.48 769.492 28.1 772.772 29.34C776.052 30.58 778.872 32.4 781.232 34.8C783.592 37.16 785.432 40.08 786.752 43.56C788.112 47 788.792 50.94 788.792 55.38C788.792 57.62 788.552 59.14 788.072 59.94C787.592 60.7 786.672 61.08 785.312 61.08H747.212ZM837.474 40.44C837.074 41.08 836.654 41.54 836.214 41.82C835.774 42.06 835.214 42.18 834.534 42.18C833.814 42.18 833.034 41.98 832.194 41.58C831.394 41.18 830.454 40.74 829.374 40.26C828.294 39.74 827.054 39.28 825.654 38.88C824.294 38.48 822.674 38.28 820.794 38.28C817.874 38.28 815.574 38.9 813.894 40.14C812.254 41.38 811.434 43 811.434 45C811.434 46.32 811.854 47.44 812.694 48.36C813.574 49.24 814.714 50.02 816.114 50.7C817.554 51.38 819.174 52 820.974 52.56C822.774 53.08 824.594 53.66 826.434 54.3C828.314 54.94 830.154 55.68 831.954 56.52C833.754 57.32 835.354 58.36 836.754 59.64C838.194 60.88 839.334 62.38 840.174 64.14C841.054 65.9 841.494 68.02 841.494 70.5C841.494 73.46 840.954 76.2 839.874 78.72C838.834 81.2 837.274 83.36 835.194 85.2C833.114 87 830.534 88.42 827.454 89.46C824.414 90.46 820.894 90.96 816.894 90.96C814.774 90.96 812.694 90.76 810.654 90.36C808.654 90 806.714 89.48 804.834 88.8C802.994 88.12 801.274 87.32 799.674 86.4C798.114 85.48 796.734 84.48 795.534 83.4L798.954 77.76C799.394 77.08 799.914 76.56 800.514 76.2C801.114 75.84 801.874 75.66 802.794 75.66C803.714 75.66 804.574 75.92 805.374 76.44C806.214 76.96 807.174 77.52 808.254 78.12C809.334 78.72 810.594 79.28 812.034 79.8C813.514 80.32 815.374 80.58 817.614 80.58C819.374 80.58 820.874 80.38 822.114 79.98C823.394 79.54 824.434 78.98 825.234 78.3C826.074 77.62 826.674 76.84 827.034 75.96C827.434 75.04 827.634 74.1 827.634 73.14C827.634 71.7 827.194 70.52 826.314 69.6C825.474 68.68 824.334 67.88 822.894 67.2C821.494 66.52 819.874 65.92 818.034 65.4C816.234 64.84 814.374 64.24 812.454 63.6C810.574 62.96 808.714 62.22 806.874 61.38C805.074 60.5 803.454 59.4 802.014 58.08C800.614 56.76 799.474 55.14 798.594 53.22C797.754 51.3 797.334 48.98 797.334 46.26C797.334 43.74 797.834 41.34 798.834 39.06C799.834 36.78 801.294 34.8 803.214 33.12C805.174 31.4 807.594 30.04 810.474 29.04C813.394 28 816.754 27.48 820.554 27.48C824.794 27.48 828.654 28.18 832.134 29.58C835.614 30.98 838.514 32.82 840.834 35.1L837.474 40.44ZM890.208 40.44C889.808 41.08 889.388 41.54 888.948 41.82C888.508 42.06 887.948 42.18 887.268 42.18C886.548 42.18 885.768 41.98 884.928 41.58C884.128 41.18 883.188 40.74 882.108 40.26C881.028 39.74 879.788 39.28 878.388 38.88C877.028 38.48 875.408 38.28 873.528 38.28C870.608 38.28 868.308 38.9 866.628 40.14C864.988 41.38 864.168 43 864.168 45C864.168 46.32 864.588 47.44 865.428 48.36C866.308 49.24 867.448 50.02 868.848 50.7C870.288 51.38 871.908 52 873.708 52.56C875.508 53.08 877.328 53.66 879.168 54.3C881.048 54.94 882.888 55.68 884.688 56.52C886.488 57.32 888.088 58.36 889.488 59.64C890.928 60.88 892.068 62.38 892.908 64.14C893.788 65.9 894.228 68.02 894.228 70.5C894.228 73.46 893.688 76.2 892.608 78.72C891.568 81.2 890.008 83.36 887.928 85.2C885.848 87 883.268 88.42 880.188 89.46C877.148 90.46 873.628 90.96 869.628 90.96C867.508 90.96 865.428 90.76 863.388 90.36C861.388 90 859.448 89.48 857.568 88.8C855.728 88.12 854.008 87.32 852.408 86.4C850.848 85.48 849.468 84.48 848.268 83.4L851.688 77.76C852.128 77.08 852.648 76.56 853.248 76.2C853.848 75.84 854.608 75.66 855.528 75.66C856.448 75.66 857.308 75.92 858.108 76.44C858.948 76.96 859.908 77.52 860.988 78.12C862.068 78.72 863.328 79.28 864.768 79.8C866.248 80.32 868.108 80.58 870.348 80.58C872.108 80.58 873.608 80.38 874.848 79.98C876.128 79.54 877.168 78.98 877.968 78.3C878.808 77.62 879.408 76.84 879.768 75.96C880.168 75.04 880.368 74.1 880.368 73.14C880.368 71.7 879.928 70.52 879.048 69.6C878.208 68.68 877.068 67.88 875.628 67.2C874.228 66.52 872.608 65.92 870.768 65.4C868.968 64.84 867.108 64.24 865.188 63.6C863.308 62.96 861.448 62.22 859.608 61.38C857.808 60.5 856.188 59.4 854.748 58.08C853.348 56.76 852.208 55.14 851.328 53.22C850.488 51.3 850.068 48.98 850.068 46.26C850.068 43.74 850.568 41.34 851.568 39.06C852.568 36.78 854.028 34.8 855.948 33.12C857.908 31.4 860.328 30.04 863.208 29.04C866.128 28 869.488 27.48 873.288 27.48C877.528 27.48 881.388 28.18 884.868 29.58C888.348 30.98 891.248 32.82 893.568 35.1L890.208 40.44Z" fill="black" fill-opacity="0.16"/>
</svg>
